<svg width="16" height="20" viewBox="0 0 16 20" fill="none" xmlns="http://www.w3.org/2000/svg">
<path d="M8.00008 10C9.05491 10 10.0861 9.70676 10.9631 9.15735C11.8402 8.60794 12.5238 7.82705 12.9274 6.91342C13.3311 5.99979 13.4367 4.99446 13.2309 4.02455C13.0251 3.05465 12.5172 2.16373 11.7713 1.46447C11.0254 0.765206 10.0751 0.289002 9.04056 0.0960758C8.006 -0.0968503 6.93364 0.00216643 5.9591 0.380605C4.98456 0.759043 4.15161 1.39991 3.56558 2.22215C2.97954 3.0444 2.66675 4.0111 2.66675 5C2.66816 6.32568 3.23052 7.59668 4.2304 8.53407C5.23029 9.47147 6.58603 9.99868 8.00008 10ZM8.00008 1.66667C8.7033 1.66667 9.39073 1.86217 9.97544 2.22844C10.5601 2.59471 11.0159 3.1153 11.285 3.72439C11.5541 4.33348 11.6245 5.0037 11.4873 5.6503C11.3501 6.29691 11.0115 6.89085 10.5142 7.35703C10.017 7.8232 9.38345 8.14067 8.69374 8.26929C8.00402 8.3979 7.28912 8.33189 6.63943 8.0796C5.98974 7.82731 5.43443 7.40007 5.04375 6.8519C4.65306 6.30374 4.44453 5.65927 4.44453 5C4.44453 4.11595 4.81913 3.2681 5.48592 2.64298C6.15272 2.01786 7.05709 1.66667 8.00008 1.66667Z" fill="black"/>
<path d="M8 11.6667C5.87899 11.669 3.84553 12.4598 2.34574 13.8659C0.845963 15.2719 0.00235276 17.1783 0 19.1667C0 19.3878 0.0936505 19.5997 0.260349 19.756C0.427048 19.9123 0.653141 20.0001 0.888889 20.0001C1.12464 20.0001 1.35073 19.9123 1.51743 19.756C1.68413 19.5997 1.77778 19.3878 1.77778 19.1667C1.77778 17.6197 2.43333 16.1359 3.60022 15.042C4.76712 13.948 6.34976 13.3334 8 13.3334C9.65024 13.3334 11.2329 13.948 12.3998 15.042C13.5667 16.1359 14.2222 17.6197 14.2222 19.1667C14.2222 19.3878 14.3159 19.5997 14.4826 19.756C14.6493 19.9123 14.8754 20.0001 15.1111 20.0001C15.3469 20.0001 15.573 19.9123 15.7397 19.756C15.9064 19.5997 16 19.3878 16 19.1667C15.9976 17.1783 15.154 15.2719 13.6543 13.8659C12.1545 12.4598 10.121 11.669 8 11.6667Z" fill="black"/>
</svg>
