<svg width="28" height="34" viewBox="0 0 28 34" fill="none" xmlns="http://www.w3.org/2000/svg">
<g id="Group 130" filter="url(#filter0_d_146_539)">
<path id="Vector" d="M14.0001 13C15.3186 13 16.6076 12.6334 17.7039 11.9467C18.8002 11.2599 19.6547 10.2838 20.1593 9.14177C20.6639 7.99974 20.7959 6.74307 20.5387 5.53069C20.2814 4.31831 19.6465 3.20466 18.7141 2.33059C17.7818 1.45651 16.5939 0.861252 15.3007 0.620095C14.0075 0.378937 12.6671 0.502708 11.4489 0.975756C10.2307 1.4488 9.18951 2.24988 8.45697 3.27769C7.72443 4.3055 7.33344 5.51387 7.33344 6.75C7.3352 8.4071 8.03815 9.99585 9.28801 11.1676C10.5379 12.3393 12.2325 12.9983 14.0001 13ZM14.0001 2.58334C14.8791 2.58334 15.7384 2.82771 16.4693 3.28555C17.2002 3.74339 17.7698 4.39413 18.1062 5.15549C18.4426 5.91685 18.5306 6.75462 18.3591 7.56288C18.1877 8.37113 17.7644 9.11356 17.1428 9.69628C16.5212 10.279 15.7293 10.6758 14.8672 10.8366C14.005 10.9974 13.1114 10.9149 12.2993 10.5995C11.4872 10.2841 10.793 9.75008 10.3047 9.06488C9.81632 8.37967 9.55566 7.57409 9.55566 6.75C9.55566 5.64493 10.0239 4.58513 10.8574 3.80372C11.6909 3.02232 12.8214 2.58334 14.0001 2.58334Z" fill="#37D4FF"/>
<path id="Vector_2" d="M14 15.0835C11.3487 15.0863 8.80691 16.0749 6.93218 17.8324C5.05745 19.59 4.00294 21.9729 4 24.4585C4 24.7348 4.11706 24.9997 4.32544 25.1951C4.53381 25.3904 4.81643 25.5002 5.11111 25.5002C5.4058 25.5002 5.68841 25.3904 5.89679 25.1951C6.10516 24.9997 6.22222 24.7348 6.22222 24.4585C6.22222 22.5246 7.04166 20.67 8.50028 19.3025C9.9589 17.9351 11.9372 17.1668 14 17.1668C16.0628 17.1668 18.0411 17.9351 19.4997 19.3025C20.9583 20.67 21.7778 22.5246 21.7778 24.4585C21.7778 24.7348 21.8948 24.9997 22.1032 25.1951C22.3116 25.3904 22.5942 25.5002 22.8889 25.5002C23.1836 25.5002 23.4662 25.3904 23.6746 25.1951C23.8829 24.9997 24 24.7348 24 24.4585C23.9971 21.9729 22.9425 19.59 21.0678 17.8324C19.1931 16.0749 16.6513 15.0863 14 15.0835Z" fill="#37D4FF"/>
</g>
<defs>
<filter id="filter0_d_146_539" x="0" y="0.5" width="28" height="33.0002" filterUnits="userSpaceOnUse" color-interpolation-filters="sRGB">
<feFlood flood-opacity="0" result="BackgroundImageFix"/>
<feColorMatrix in="SourceAlpha" type="matrix" values="0 0 0 0 0 0 0 0 0 0 0 0 0 0 0 0 0 0 127 0" result="hardAlpha"/>
<feOffset dy="4"/>
<feGaussianBlur stdDeviation="2"/>
<feComposite in2="hardAlpha" operator="out"/>
<feColorMatrix type="matrix" values="0 0 0 0 0.216667 0 0 0 0 0.831215 0 0 0 0 1 0 0 0 0.35 0"/>
<feBlend mode="normal" in2="BackgroundImageFix" result="effect1_dropShadow_146_539"/>
<feBlend mode="normal" in="SourceGraphic" in2="effect1_dropShadow_146_539" result="shape"/>
</filter>
</defs>
</svg>
