<svg width="32" height="32" viewBox="0 0 32 32" fill="none" xmlns="http://www.w3.org/2000/svg">
<g id="Group 115" filter="url(#filter0_d_146_367)">
<g id="Group 131">
<path id="Vector" d="M23 2H22V1C22 0.734784 21.8946 0.48043 21.7071 0.292893C21.5196 0.105357 21.2652 0 21 0C20.7348 0 20.4804 0.105357 20.2929 0.292893C20.1054 0.48043 20 0.734784 20 1V2H12V1C12 0.734784 11.8946 0.48043 11.7071 0.292893C11.5196 0.105357 11.2652 0 11 0C10.7348 0 10.4804 0.105357 10.2929 0.292893C10.1054 0.48043 10 0.734784 10 1V2H9C7.67441 2.00159 6.40356 2.52888 5.46622 3.46622C4.52888 4.40356 4.00159 5.67441 4 7L4 19C4.00159 20.3256 4.52888 21.5964 5.46622 22.5338C6.40356 23.4711 7.67441 23.9984 9 24H23C24.3256 23.9984 25.5964 23.4711 26.5338 22.5338C27.4711 21.5964 27.9984 20.3256 28 19V7C27.9984 5.67441 27.4711 4.40356 26.5338 3.46622C25.5964 2.52888 24.3256 2.00159 23 2ZM6 7C6 6.20435 6.31607 5.44129 6.87868 4.87868C7.44129 4.31607 8.20435 4 9 4H23C23.7956 4 24.5587 4.31607 25.1213 4.87868C25.6839 5.44129 26 6.20435 26 7V8H6V7ZM23 22H9C8.20435 22 7.44129 21.6839 6.87868 21.1213C6.31607 20.5587 6 19.7956 6 19V10H26V19C26 19.7956 25.6839 20.5587 25.1213 21.1213C24.5587 21.6839 23.7956 22 23 22Z" fill="#37D4FF"/>
<path id="Vector_2" d="M16 16.5C16.8284 16.5 17.5 15.8284 17.5 15C17.5 14.1716 16.8284 13.5 16 13.5C15.1716 13.5 14.5 14.1716 14.5 15C14.5 15.8284 15.1716 16.5 16 16.5Z" fill="#37D4FF"/>
<path id="Vector_3" d="M11 16.5C11.8284 16.5 12.5 15.8284 12.5 15C12.5 14.1716 11.8284 13.5 11 13.5C10.1716 13.5 9.5 14.1716 9.5 15C9.5 15.8284 10.1716 16.5 11 16.5Z" fill="#37D4FF"/>
<path id="Vector_4" d="M21 16.5C21.8284 16.5 22.5 15.8284 22.5 15C22.5 14.1716 21.8284 13.5 21 13.5C20.1716 13.5 19.5 14.1716 19.5 15C19.5 15.8284 20.1716 16.5 21 16.5Z" fill="#37D4FF"/>
</g>
</g>
<defs>
<filter id="filter0_d_146_367" x="0" y="0" width="32" height="32" filterUnits="userSpaceOnUse" color-interpolation-filters="sRGB">
<feFlood flood-opacity="0" result="BackgroundImageFix"/>
<feColorMatrix in="SourceAlpha" type="matrix" values="0 0 0 0 0 0 0 0 0 0 0 0 0 0 0 0 0 0 127 0" result="hardAlpha"/>
<feOffset dy="4"/>
<feGaussianBlur stdDeviation="2"/>
<feComposite in2="hardAlpha" operator="out"/>
<feColorMatrix type="matrix" values="0 0 0 0 0.216667 0 0 0 0 0.831215 0 0 0 0 1 0 0 0 0.35 0"/>
<feBlend mode="normal" in2="BackgroundImageFix" result="effect1_dropShadow_146_367"/>
<feBlend mode="normal" in="SourceGraphic" in2="effect1_dropShadow_146_367" result="shape"/>
</filter>
</defs>
</svg>
