<svg width="167" height="246" viewBox="0 0 167 246" fill="none" xmlns="http://www.w3.org/2000/svg">
<g clip-path="url(#clip0_32_1231)">
<path d="M119.803 103.541C119.803 103.541 120.614 114.506 120.614 114.912C120.614 115.318 114.938 143.339 114.938 143.339C114.938 143.339 106.83 158.772 114.938 158.365C123.047 157.959 120.614 143.745 120.614 143.745L129.128 120.191L125.479 103.541L119.803 103.541Z" fill="#FFB8B8"/>
<path d="M159.941 226.186L161.157 235.12L152.643 235.932L153.859 224.967L159.941 226.186Z" fill="#FFB8B8"/>
<path d="M133.182 226.186L131.966 235.12L140.48 235.932L139.263 224.967L133.182 226.186Z" fill="#FFB8B8"/>
<path d="M123.857 142.527L121.83 145.37C121.83 145.37 120.614 157.553 121.83 161.614C123.046 165.675 125.479 184.357 125.479 185.575C125.479 186.793 125.884 187.605 125.479 188.011C125.074 188.418 125.479 192.479 125.479 192.479V194.509L130.75 224.561C130.75 224.561 127.506 228.216 129.939 228.216C132.371 228.216 141.291 228.216 140.885 224.155L140.074 223.749C140.074 223.749 138.858 196.946 139.263 195.728C139.669 194.509 140.074 186.793 140.074 186.793L143.723 162.02L150.615 185.981L152.237 221.719C152.237 221.719 150.615 225.78 152.237 226.592C153.859 227.404 160.751 230.247 161.156 226.186C161.562 222.125 163.589 186.793 163.589 185.169C163.589 183.544 162.778 158.365 162.778 158.365C162.778 158.365 163.184 154.304 163.589 153.492C163.994 152.68 163.184 151.868 163.589 150.649C163.994 149.431 162.778 145.37 162.778 145.37L144.534 140.497L123.857 142.527Z" fill="#2F2E41"/>
<path d="M138.047 233.496C138.047 233.496 140.074 231.465 137.236 231.465C135.414 231.503 133.62 231.917 131.966 232.684L129.939 239.994C129.939 239.994 121.628 246.694 130.952 245.882C140.277 245.07 141.696 244.867 142.102 244.055C142.386 243.485 141.872 237.513 141.54 234.003C141.525 233.834 141.465 233.673 141.366 233.535C141.267 233.397 141.133 233.289 140.977 233.221C140.822 233.154 140.652 233.129 140.484 233.15C140.315 233.172 140.156 233.238 140.023 233.342C139.759 233.588 139.42 233.736 139.062 233.764C138.703 233.792 138.346 233.697 138.047 233.496Z" fill="#2F2E41"/>
<path d="M155.481 233.496C155.481 233.496 153.454 231.465 156.291 231.465C158.113 231.503 159.908 231.917 161.562 232.684L163.589 239.994C163.589 239.994 171.9 246.694 162.576 245.882C153.251 245.07 150.616 244.867 150.21 244.055C149.928 243.489 151.022 237.603 151.713 234.083C151.751 233.888 151.837 233.707 151.965 233.556C152.093 233.405 152.257 233.288 152.442 233.219C152.627 233.149 152.827 233.127 153.022 233.157C153.218 233.186 153.403 233.265 153.559 233.386C153.823 233.613 154.154 233.747 154.501 233.767C154.849 233.787 155.193 233.692 155.481 233.496Z" fill="#2F2E41"/>
<path d="M125.479 68.6151C125.479 68.6151 127.101 76.7373 127.101 77.9556C127.101 79.1739 133.993 82.8289 133.993 82.8289L141.696 73.0823C141.696 73.0823 136.831 66.1784 136.831 64.554L125.479 68.6151Z" fill="#FFB8B8"/>
<path d="M131.56 79.1739C131.56 79.1739 128.027 78.2318 126.956 76.6723C126.956 76.6723 115.749 87.7022 115.749 89.7328L124.668 105.571C124.668 105.571 124.668 111.257 125.479 111.663C126.29 112.069 125.479 111.663 125.479 113.287C125.479 114.912 123.046 125.47 123.857 127.095C124.668 128.719 125.479 127.501 124.668 129.938C123.857 132.374 121.83 145.37 121.83 145.37C121.83 145.37 129.128 142.933 139.669 146.994C150.21 151.055 162.778 145.37 162.778 145.37C162.778 145.37 159.535 138.06 160.346 135.623C161.156 133.187 158.318 128.719 158.318 128.719L156.291 91.3572C156.291 91.3572 159.129 74.7067 157.102 73.8945L153.048 72.27L140.065 70.6716C140.065 70.6716 136.831 78.7678 131.56 79.1739Z" fill="#3F3D56"/>
<path d="M119.803 86.89L115.749 89.7328C115.749 89.7328 113.722 95.8244 115.749 98.6672C117.776 101.51 118.587 105.571 118.587 105.571L126.695 104.759L119.803 86.89Z" fill="#3F3D56"/>
<path d="M121.106 58.4588V21.4308C121.106 18.6165 120.552 15.8297 119.477 13.2296C118.402 10.6295 116.826 8.26698 114.839 6.27694C112.853 4.28691 110.494 2.70833 107.899 1.63133C105.303 0.554327 102.521 2.2195e-06 99.7112 0H21.3947C18.5851 -6.65826e-06 15.803 0.554312 13.2073 1.6313C10.6116 2.7083 8.25305 4.28687 6.26638 6.2769C4.2797 8.26692 2.70377 10.6294 1.62859 13.2295C0.553401 15.8296 5.7608e-06 18.6164 0 21.4307V224.569C-2.68488e-06 230.253 2.25406 235.704 6.26633 239.723C10.2786 243.742 15.7204 246 21.3946 246H99.7111C105.385 246 110.827 243.742 114.839 239.723C118.852 235.704 121.106 230.253 121.106 224.569V84.8159L121.106 58.4588Z" fill="#E6E6E6"/>
<path d="M100.574 5.57558H90.3516C90.8217 6.73012 91.0012 7.98275 90.8741 9.22312C90.7471 10.4635 90.3175 11.6536 89.6232 12.6884C88.9289 13.7233 87.9911 14.5713 86.8926 15.1577C85.794 15.744 84.5684 16.0507 83.3236 16.0508H38.4571C37.2123 16.0508 35.9866 15.744 34.8881 15.1577C33.7895 14.5713 32.8517 13.7233 32.1574 12.6884C31.4631 11.6536 31.0335 10.4635 30.9065 9.22312C30.7795 7.98274 30.9589 6.7301 31.429 5.57556H21.8808C17.6434 5.57556 13.5795 7.26172 10.5832 10.2631C7.58688 13.2645 5.90357 17.3352 5.90356 21.5798V224.42C5.90356 228.665 7.58687 232.736 10.5832 235.737C13.5795 238.738 17.6434 240.424 21.8808 240.424H100.574C102.673 240.424 104.75 240.011 106.689 239.206C108.627 238.402 110.388 237.223 111.872 235.737C113.356 234.251 114.533 232.486 115.336 230.545C116.138 228.603 116.552 226.522 116.552 224.42V21.5798C116.552 19.4781 116.138 17.397 115.336 15.4553C114.533 13.5135 113.356 11.7492 111.872 10.2631C110.388 8.77697 108.627 7.5981 106.689 6.79382C104.75 5.98953 102.673 5.57557 100.574 5.57558Z" fill="white"/>
<path d="M110.966 96.2367H13.6915C13.2139 96.2361 12.7561 96.0458 12.4184 95.7075C12.0807 95.3693 11.8907 94.9106 11.8901 94.4322V70.2618C11.8907 69.7834 12.0807 69.3248 12.4184 68.9865C12.7561 68.6482 13.2139 68.458 13.6915 68.4574H110.966C111.444 68.458 111.901 68.6482 112.239 68.9865C112.577 69.3248 112.767 69.7834 112.767 70.2618V94.4322C112.767 94.9106 112.577 95.3693 112.239 95.7075C111.901 96.0458 111.444 96.2361 110.966 96.2367ZM13.6915 69.1792C13.405 69.1795 13.1302 69.2936 12.9276 69.4966C12.725 69.6996 12.611 69.9748 12.6107 70.2618V94.4323C12.611 94.7193 12.725 94.9945 12.9276 95.1975C13.1302 95.4004 13.405 95.5146 13.6915 95.5149H110.966C111.253 95.5146 111.527 95.4004 111.73 95.1975C111.933 94.9945 112.047 94.7193 112.047 94.4323V70.2618C112.047 69.9748 111.933 69.6996 111.73 69.4966C111.527 69.2936 111.253 69.1795 110.966 69.1792L13.6915 69.1792Z" fill="#E6E6E6"/>
<path d="M28.8059 88.7699C32.8585 88.7699 36.1437 85.479 36.1437 81.4196C36.1437 77.3602 32.8585 74.0693 28.8059 74.0693C24.7533 74.0693 21.468 77.3602 21.468 81.4196C21.468 85.479 24.7533 88.7699 28.8059 88.7699Z" fill="#E6E6E6"/>
<path d="M45.7529 76.5194C45.4289 76.5199 45.1184 76.6493 44.8895 76.8789C44.6606 77.1086 44.532 77.4199 44.532 77.7445C44.532 78.069 44.6606 78.3803 44.8895 78.61C45.1184 78.8397 45.4289 78.969 45.7529 78.9695H103.408C103.568 78.9698 103.728 78.9383 103.876 78.8768C104.025 78.8154 104.16 78.7252 104.274 78.6114C104.387 78.4976 104.478 78.3625 104.539 78.2137C104.601 78.065 104.633 77.9055 104.633 77.7445C104.633 77.5834 104.601 77.4239 104.539 77.2752C104.478 77.1264 104.387 76.9913 104.274 76.8775C104.16 76.7637 104.025 76.6735 103.876 76.6121C103.728 76.5506 103.568 76.5191 103.408 76.5194H45.7529Z" fill="#E6E6E6"/>
<path d="M45.753 83.8696C45.4286 83.8696 45.1176 83.9987 44.8882 84.2284C44.6589 84.4582 44.53 84.7698 44.53 85.0947C44.53 85.4196 44.6589 85.7312 44.8882 85.9609C45.1176 86.1907 45.4286 86.3197 45.753 86.3197H70.5619C70.8863 86.3197 71.1974 86.1907 71.4267 85.9609C71.6561 85.7312 71.7849 85.4196 71.7849 85.0947C71.7849 84.7698 71.6561 84.4582 71.4267 84.2284C71.1974 83.9987 70.8863 83.8696 70.5619 83.8696H45.753Z" fill="#E6E6E6"/>
<path d="M110.966 174.656H13.6915C13.2139 174.656 12.7561 174.465 12.4184 174.127C12.0807 173.789 11.8907 173.33 11.8901 172.852V148.681C11.8907 148.203 12.0807 147.744 12.4184 147.406C12.7561 147.068 13.2139 146.878 13.6915 146.877H110.966C111.444 146.878 111.901 147.068 112.239 147.406C112.577 147.744 112.767 148.203 112.767 148.681V172.852C112.767 173.33 112.577 173.789 112.239 174.127C111.901 174.465 111.444 174.656 110.966 174.656ZM13.6915 147.599C13.405 147.599 13.1302 147.713 12.9276 147.916C12.725 148.119 12.611 148.394 12.6107 148.681V172.852C12.611 173.139 12.725 173.414 12.9276 173.617C13.1302 173.82 13.405 173.934 13.6915 173.934H110.966C111.253 173.934 111.527 173.82 111.73 173.617C111.933 173.414 112.047 173.139 112.047 172.852V148.681C112.047 148.394 111.933 148.119 111.73 147.916C111.527 147.713 111.253 147.599 110.966 147.599L13.6915 147.599Z" fill="#E6E6E6"/>
<path d="M28.8059 167.189C32.8585 167.189 36.1437 163.899 36.1437 159.839C36.1437 155.78 32.8585 152.489 28.8059 152.489C24.7533 152.489 21.468 155.78 21.468 159.839C21.468 163.899 24.7533 167.189 28.8059 167.189Z" fill="#E6E6E6"/>
<path d="M45.753 154.939C45.4286 154.939 45.1176 155.068 44.8882 155.298C44.6589 155.527 44.53 155.839 44.53 156.164C44.53 156.489 44.6589 156.8 44.8882 157.03C45.1176 157.26 45.4286 157.389 45.753 157.389H103.408C103.568 157.389 103.728 157.358 103.876 157.296C104.025 157.235 104.16 157.145 104.274 157.031C104.387 156.917 104.478 156.782 104.539 156.633C104.601 156.485 104.633 156.325 104.633 156.164C104.633 156.003 104.601 155.843 104.539 155.695C104.478 155.546 104.387 155.411 104.274 155.297C104.16 155.183 104.025 155.093 103.876 155.032C103.728 154.97 103.568 154.939 103.408 154.939H45.753Z" fill="#E6E6E6"/>
<path d="M45.7529 162.289C45.4289 162.29 45.1184 162.419 44.8895 162.649C44.6606 162.878 44.532 163.19 44.532 163.514C44.532 163.839 44.6606 164.15 44.8895 164.38C45.1184 164.609 45.4289 164.739 45.7529 164.739H70.5619C70.8862 164.739 71.1973 164.61 71.4267 164.38C71.656 164.151 71.7849 163.839 71.7849 163.514C71.7849 163.189 71.656 162.878 71.4267 162.648C71.1973 162.418 70.8862 162.289 70.5619 162.289H45.7529Z" fill="#E6E6E6"/>
<path d="M112.091 111.838V136.009C112.091 136.487 111.901 136.946 111.564 137.284C111.227 137.622 110.77 137.813 110.292 137.814H60.3674V110.503H111.497C111.684 110.671 111.834 110.877 111.936 111.107C112.039 111.337 112.091 111.586 112.091 111.838Z" fill="#37D4FF"/>
<path d="M86.5665 110.033H85.8916V137.091H86.5665V110.033Z" fill="white"/>
<path d="M111.497 110.503C111.169 110.199 110.739 110.031 110.292 110.033H13.017C12.5395 110.034 12.0817 110.224 11.744 110.563C11.4063 110.901 11.2161 111.359 11.2151 111.838V136.009C11.2161 136.488 11.4063 136.946 11.744 137.284C12.0817 137.623 12.5395 137.813 13.017 137.814H110.292C110.77 137.813 111.227 137.622 111.564 137.284C111.901 136.946 112.091 136.487 112.091 136.009V111.838C112.091 111.586 112.039 111.337 111.936 111.107C111.834 110.877 111.684 110.671 111.497 110.503ZM111.372 136.009C111.371 136.296 111.257 136.57 111.055 136.773C110.853 136.976 110.578 137.09 110.292 137.091H13.017C12.7307 137.091 12.4562 136.977 12.2538 136.774C12.0513 136.571 11.9375 136.296 11.9372 136.009V111.838C11.9371 111.696 11.9649 111.555 12.0191 111.424C12.0733 111.292 12.1528 111.173 12.2531 111.073C12.3534 110.972 12.4726 110.892 12.6036 110.838C12.7347 110.784 12.8752 110.756 13.017 110.756H110.292C110.579 110.756 110.853 110.87 111.056 111.073C111.258 111.276 111.372 111.551 111.372 111.838L111.372 136.009Z" fill="#E6E6E6"/>
<path d="M44.0183 122.827H20.7818C20.4574 122.827 20.1463 122.956 19.9169 123.185C19.6875 123.415 19.5586 123.727 19.5586 124.052C19.5586 124.377 19.6875 124.688 19.9169 124.918C20.1463 125.148 20.4574 125.277 20.7818 125.277H44.0183C44.3427 125.277 44.6539 125.148 44.8833 124.918C45.1127 124.688 45.2415 124.377 45.2415 124.052C45.2415 123.727 45.1127 123.415 44.8833 123.185C44.6539 122.956 44.3427 122.827 44.0183 122.827Z" fill="#E6E6E6"/>
<path d="M71.9806 121.225C71.5429 120.88 70.9922 120.711 70.437 120.753C69.8817 120.795 69.3621 121.043 68.9807 121.45C68.5876 121.891 68.3799 122.467 68.4011 123.058C68.4223 123.649 68.6707 124.209 69.0944 124.621L71.9393 127.471C72.0025 127.534 72.0884 127.57 72.1779 127.57C72.2674 127.57 72.3532 127.534 72.4165 127.471L75.2613 124.621C75.685 124.209 75.9334 123.649 75.9546 123.058C75.9758 122.467 75.7681 121.891 75.375 121.45C74.9936 121.043 74.474 120.795 73.9188 120.753C73.3635 120.711 72.8128 120.88 72.3752 121.225C72.3188 121.268 72.2493 121.292 72.1779 121.292C72.1064 121.292 72.037 121.268 71.9806 121.225Z" fill="white"/>
<path d="M101.61 127.708H97.4123C97.337 127.708 97.2639 127.682 97.2046 127.636C97.1453 127.59 97.1032 127.525 97.0849 127.452L95.9039 122.719C95.8914 122.669 95.8905 122.617 95.9011 122.567C95.9118 122.517 95.9337 122.47 95.9653 122.429C95.9968 122.389 96.0372 122.356 96.0833 122.334C96.1293 122.311 96.18 122.299 96.2312 122.299H102.791C102.842 122.299 102.893 122.311 102.939 122.334C102.985 122.356 103.025 122.389 103.057 122.429C103.088 122.47 103.11 122.517 103.121 122.567C103.131 122.617 103.13 122.669 103.118 122.719L101.937 127.452C101.919 127.525 101.877 127.59 101.817 127.636C101.758 127.682 101.685 127.708 101.61 127.708Z" fill="white"/>
<path d="M99.511 123.82C99.4663 123.82 99.4234 123.838 99.3918 123.87C99.3601 123.902 99.3423 123.945 99.3423 123.989V126.355C99.3423 126.4 99.3601 126.443 99.3917 126.475C99.4233 126.507 99.4663 126.524 99.511 126.524C99.5558 126.524 99.5987 126.507 99.6303 126.475C99.6619 126.443 99.6797 126.4 99.6797 126.355V123.989C99.6797 123.945 99.6619 123.902 99.6302 123.87C99.5986 123.838 99.5557 123.82 99.511 123.82Z" fill="#37D4FF"/>
<path d="M100.717 126.31C100.706 126.353 100.711 126.399 100.733 126.438C100.755 126.477 100.792 126.506 100.835 126.518C100.878 126.53 100.924 126.524 100.963 126.502C101.002 126.481 101.031 126.444 101.043 126.401L101.679 124.123C101.691 124.079 101.685 124.033 101.663 123.995C101.641 123.956 101.605 123.927 101.562 123.915C101.519 123.903 101.473 123.909 101.434 123.93C101.395 123.952 101.366 123.989 101.354 124.032L100.717 126.31Z" fill="#37D4FF"/>
<path d="M97.5059 123.908C97.4905 123.908 97.4752 123.91 97.4604 123.914C97.4173 123.926 97.3807 123.955 97.3587 123.994C97.3367 124.033 97.3311 124.079 97.3431 124.123L97.9794 126.401C97.9915 126.444 98.0202 126.481 98.0592 126.503C98.0982 126.525 98.1444 126.53 98.1875 126.518C98.2306 126.506 98.2672 126.478 98.2892 126.438C98.3111 126.399 98.3167 126.353 98.3047 126.31L97.6683 124.031C97.6583 123.996 97.6371 123.965 97.6077 123.942C97.5784 123.92 97.5427 123.908 97.5059 123.908Z" fill="#37D4FF"/>
<path d="M102.548 121.623H100.186V121.285C100.186 121.106 100.115 120.934 99.9884 120.807C99.8618 120.68 99.6901 120.609 99.5111 120.609C99.3322 120.609 99.1605 120.68 99.0339 120.807C98.9074 120.934 98.8363 121.106 98.8363 121.285V121.623H96.4741C96.4294 121.623 96.3865 121.641 96.3548 121.673C96.3232 121.704 96.3054 121.747 96.3054 121.792C96.3054 121.837 96.3232 121.88 96.3548 121.912C96.3865 121.943 96.4294 121.961 96.4741 121.961H102.548C102.593 121.961 102.636 121.943 102.667 121.912C102.699 121.88 102.717 121.837 102.717 121.792C102.717 121.747 102.699 121.704 102.667 121.673C102.636 121.641 102.593 121.623 102.548 121.623Z" fill="white"/>
<path d="M129.128 71.4578C134.95 71.4578 139.669 66.7305 139.669 60.899C139.669 55.0675 134.95 50.3401 129.128 50.3401C123.306 50.3401 118.587 55.0675 118.587 60.899C118.587 66.7305 123.306 71.4578 129.128 71.4578Z" fill="#FFB8B8"/>
<path d="M121.08 49.7401L119.251 49.0068C119.251 49.0068 123.074 44.7906 128.394 45.1572L126.898 43.5074C126.898 43.5074 130.555 42.0409 133.879 45.8905C135.627 47.9141 137.649 50.2928 138.909 52.9723H140.867L140.05 54.7749L142.911 56.5774L139.975 56.2536C140.253 57.8099 140.158 59.41 139.697 60.9221L139.776 62.3469C139.776 62.3469 136.372 57.0725 136.372 56.3393V58.1724C136.372 58.1724 134.544 56.5226 134.544 55.4227L133.547 56.7059L133.048 54.6895L126.898 56.7059L127.895 55.0561L124.072 55.6061L125.568 53.5896C125.568 53.5896 121.246 55.9727 121.08 57.9891C120.914 60.0056 118.753 62.572 118.753 62.572L117.755 60.7388C117.755 60.7388 116.259 52.4897 121.08 49.7401Z" fill="#2F2E41"/>
<path d="M149.805 90.545C149.805 90.545 147.457 96.5923 147.947 102.576C148.037 103.647 148.397 104.678 148.994 105.571L120.231 119.249C120.231 119.249 107.235 120.597 110.478 126.283C113.722 131.968 125.479 123.44 125.479 123.44C125.479 123.44 156.291 118.973 158.724 114.506C161.156 110.038 162.778 91.3573 162.778 91.3573L149.805 90.545Z" fill="#FFB8B8"/>
<path d="M151.021 73.8945H157.102C157.102 73.8945 161.562 74.7068 162.778 82.8289C163.995 90.9511 165.211 92.9817 163.995 92.9817C162.778 92.9817 148.183 92.5756 148.183 92.1695C148.183 91.7634 151.021 73.8945 151.021 73.8945Z" fill="#3F3D56"/>
</g>
<defs>
<clipPath id="clip0_32_1231">
<rect width="167" height="246" fill="white"/>
</clipPath>
</defs>
</svg>
