<svg width="159" height="128" viewBox="0 0 159 128" fill="none" xmlns="http://www.w3.org/2000/svg">
<g clip-path="url(#clip0_32_1371)">
<path d="M131.266 114.46C131.278 114.439 131.292 114.419 131.306 114.4C131.341 114.316 131.386 114.236 131.439 114.162L135.83 107.969L139.449 102.868H145.621L145.184 103.482L144.408 104.578L142.001 107.971L136.843 115.243L141.624 124.924C141.819 125.318 141.486 125.884 140.883 126.187L138.578 127.345C138.349 127.463 138.096 127.526 137.839 127.531C137.515 127.531 137.244 127.41 137.131 127.179L131.187 115.144C131.14 115.033 131.123 114.911 131.137 114.791C131.151 114.672 131.195 114.557 131.266 114.46Z" fill="#37D4FF"/>
<path d="M139.571 114.089L133.354 111.76C133.072 111.654 132.843 111.44 132.718 111.164C132.593 110.888 132.581 110.574 132.685 110.289L134.509 105.341C134.614 105.057 134.827 104.827 135.1 104.701C135.374 104.574 135.686 104.562 135.968 104.668L142.185 106.996C142.467 107.102 142.696 107.317 142.821 107.592C142.946 107.868 142.958 108.182 142.854 108.467L141.03 113.415C140.978 113.556 140.899 113.685 140.798 113.795C140.696 113.905 140.575 113.994 140.439 114.056C140.304 114.119 140.157 114.154 140.008 114.16C139.859 114.165 139.711 114.141 139.571 114.089Z" fill="#2F2E41"/>
<path d="M134.284 111.338C134.242 111.338 134.201 111.331 134.161 111.316C134.075 111.282 134.005 111.216 133.967 111.131C133.929 111.046 133.926 110.949 133.958 110.862L136.241 104.772C136.274 104.685 136.34 104.614 136.424 104.576C136.508 104.537 136.604 104.534 136.691 104.567C136.778 104.6 136.848 104.666 136.886 104.752C136.924 104.837 136.927 104.933 136.894 105.021L134.611 111.111C134.586 111.178 134.541 111.235 134.483 111.276C134.425 111.316 134.355 111.338 134.284 111.338Z" fill="white"/>
<path d="M144.317 126.625V104.629C144.316 104.609 144.318 104.588 144.321 104.568C144.331 104.313 144.416 104.066 144.563 103.859C144.711 103.651 144.916 103.492 145.152 103.4C145.303 103.34 145.464 103.309 145.626 103.31H148.202C148.549 103.31 148.882 103.449 149.128 103.697C149.373 103.944 149.511 104.279 149.512 104.629V126.625C149.511 126.975 149.373 127.31 149.128 127.558C148.882 127.805 148.549 127.944 148.202 127.945H145.626C145.279 127.944 144.946 127.805 144.701 127.558C144.455 127.31 144.317 126.975 144.317 126.625Z" fill="#37D4FF"/>
<path d="M142.919 112.897V107.619C142.919 107.315 143.039 107.025 143.251 106.81C143.464 106.596 143.752 106.475 144.053 106.475H150.686C150.987 106.475 151.275 106.596 151.488 106.81C151.701 107.025 151.82 107.315 151.821 107.619V112.897C151.82 113.2 151.701 113.491 151.488 113.705C151.275 113.92 150.987 114.041 150.686 114.041H144.053C143.752 114.041 143.464 113.92 143.251 113.705C143.039 113.491 142.919 113.2 142.919 112.897Z" fill="#2F2E41"/>
<path d="M147.994 113.484C147.901 113.484 147.812 113.447 147.747 113.381C147.682 113.315 147.645 113.225 147.645 113.132V106.622C147.645 106.528 147.681 106.439 147.747 106.373C147.812 106.307 147.901 106.27 147.994 106.27C148.086 106.27 148.175 106.307 148.241 106.373C148.306 106.439 148.343 106.528 148.343 106.622V113.132C148.343 113.225 148.306 113.315 148.24 113.381C148.175 113.447 148.086 113.484 147.994 113.484Z" fill="white"/>
<path d="M136.066 87.8986L116.981 77.9802C116.673 77.8191 116.441 77.5416 116.335 77.2085C116.23 76.8753 116.259 76.5136 116.418 76.2024L117.598 73.8937C117.758 73.5833 118.033 73.3494 118.363 73.243C118.694 73.1367 119.053 73.1667 119.361 73.3263L138.447 83.2449C138.543 83.2945 138.632 83.3564 138.712 83.4291C138.931 83.6229 139.08 83.8852 139.134 84.1741C139.188 84.4629 139.144 84.7617 139.01 85.0226L137.83 87.3312C137.751 87.4854 137.643 87.6225 137.511 87.7345C137.38 87.8464 137.228 87.9311 137.064 87.9836C136.934 88.0244 136.799 88.0453 136.663 88.0456C136.455 88.0454 136.25 87.995 136.066 87.8986Z" fill="#37D4FF"/>
<path d="M136.437 88.4689L127.158 84.776C126.848 84.619 126.613 84.3445 126.503 84.0129C126.394 83.6812 126.419 83.3193 126.574 83.0064L128.69 78.6103C128.846 78.2983 129.119 78.0611 129.447 77.9503C129.613 77.8953 129.788 77.8741 129.961 77.8879C130.135 77.9017 130.304 77.9503 130.459 78.0307L138.838 83.151C138.871 83.1675 138.901 83.1886 138.928 83.2136C139.141 83.4074 139.247 83.8725 139.333 84.2458L139.346 84.3039C139.37 84.4041 139.39 84.4905 139.41 84.5511L139.417 84.5743C139.425 84.5989 139.432 84.6244 139.437 84.6478C139.512 84.9526 139.476 85.2743 139.336 85.5548L138.181 87.8756C138.071 88.0943 137.903 88.278 137.696 88.4067C137.488 88.5354 137.25 88.6041 137.007 88.6051C136.809 88.6056 136.614 88.5589 136.437 88.4689Z" fill="#2F2E41"/>
<path d="M143.281 76.4216C148.441 76.4216 152.623 72.2056 152.623 67.0048C152.623 61.804 148.441 57.5879 143.281 57.5879C138.122 57.5879 133.94 61.804 133.94 67.0048C133.94 72.2056 138.122 76.4216 143.281 76.4216Z" fill="#37D4FF"/>
<path d="M143.827 72.0786L143.837 71.7267C143.187 71.7084 142.615 71.6674 142.184 71.3505C142.062 71.2556 141.962 71.1353 141.89 70.9978C141.819 70.8603 141.777 70.7088 141.769 70.5537C141.761 70.459 141.775 70.3637 141.81 70.2754C141.845 70.1871 141.9 70.108 141.97 70.0444C142.255 69.8013 142.715 69.88 143.05 70.0348L143.339 70.1683L142.785 66.0879L142.439 66.1357L142.91 69.6066C142.455 69.4717 142.033 69.5298 141.745 69.7757C141.634 69.8733 141.547 69.9954 141.49 70.1325C141.434 70.2697 141.41 70.418 141.42 70.5661C141.43 70.7745 141.485 70.9781 141.582 71.1627C141.678 71.3473 141.814 71.5084 141.978 71.6347C142.531 72.042 143.25 72.0622 143.827 72.0786Z" fill="#2F2E41"/>
<path d="M140.729 66.4349H138.848V66.7868H140.729V66.4349Z" fill="#2F2E41"/>
<path d="M146.663 66.4349H144.783V66.7868H146.663V66.4349Z" fill="#2F2E41"/>
<path d="M134.766 108.054C134.149 108.018 133.668 106.996 133.668 105.714V89.2316C133.667 88.4289 133.767 87.6294 133.965 86.8519L133.965 86.8517C134.037 86.5722 134.123 86.2942 134.219 86.0261C134.805 84.3754 135.834 82.921 137.191 81.8244C137.344 81.6983 137.504 81.5762 137.667 81.4617C138.457 80.8994 139.329 80.4641 140.252 80.1711C140.226 80.0551 140.213 79.9368 140.213 79.818C140.214 79.3749 140.389 78.95 140.699 78.6366C141.01 78.3233 141.432 78.147 141.871 78.1465H144.315C144.755 78.147 145.176 78.3233 145.487 78.6366C145.798 78.95 145.973 79.3749 145.973 79.818C145.973 79.9365 145.96 80.0547 145.935 80.1704C147.845 80.78 149.512 81.9868 150.696 83.616C151.88 85.2452 152.518 87.2121 152.519 89.2316V105.714C152.519 107.029 152.021 108.059 151.384 108.059H134.802C134.79 108.059 134.778 108.057 134.766 108.054Z" fill="#2F2E41"/>
<path d="M145.56 109.559C145.452 109.367 145.393 109.15 145.389 108.929L145.021 87.2882C145.018 87.1149 145.049 86.9427 145.112 86.7814C145.175 86.6201 145.269 86.4729 145.389 86.3483L145.389 86.348C145.508 86.2233 145.651 86.1236 145.809 86.0544C145.966 85.9853 146.136 85.9482 146.308 85.9451L148.884 85.9016C149.209 85.8957 149.524 86.0117 149.768 86.227C150.013 86.4423 150.169 86.7415 150.207 87.0666C150.212 87.1098 150.215 87.1534 150.215 87.1971L150.584 108.84C150.589 109.19 150.456 109.527 150.215 109.778C149.974 110.03 149.643 110.175 149.296 110.181L146.721 110.226C146.486 110.23 146.254 110.169 146.05 110.052C145.846 109.935 145.677 109.764 145.56 109.559Z" fill="#37D4FF"/>
<path d="M144.478 94.6973C144.38 94.5243 144.322 94.3314 144.309 94.1328L144.419 84.1064C144.393 83.7576 144.504 83.4123 144.73 83.1463C144.955 82.8803 145.276 82.7154 145.622 82.6876L148.19 82.4848C148.503 82.4607 148.814 82.5498 149.067 82.7361C149.093 82.7562 149.12 82.7807 149.145 82.7982C149.21 82.8521 149.277 82.9026 149.346 82.9496L149.402 82.9894C149.771 83.2529 150.189 83.5514 150.209 83.8424L151.755 93.6246C151.778 93.9039 151.711 94.1832 151.563 94.4209C151.529 94.4793 151.489 94.5346 151.445 94.5862C151.406 94.632 151.364 94.6746 151.319 94.7137C151.106 94.9069 150.835 95.0235 150.55 95.0452L145.716 95.3595C145.469 95.3787 145.221 95.3267 145.002 95.2094C144.782 95.0922 144.601 94.9146 144.478 94.6973Z" fill="#2F2E41"/>
<path d="M135.426 105.742C135.334 105.742 135.245 105.705 135.179 105.639C135.114 105.573 135.077 105.483 135.077 105.39V88.3226C135.077 88.2293 135.114 88.1398 135.179 88.0738C135.245 88.0078 135.334 87.9707 135.426 87.9707C135.519 87.9707 135.608 88.0078 135.673 88.0738C135.738 88.1398 135.775 88.2293 135.775 88.3226V105.39C135.775 105.483 135.738 105.573 135.673 105.639C135.607 105.705 135.519 105.742 135.426 105.742Z" fill="white"/>
<path d="M151.754 64.7677L135.525 58.7831C135.439 58.7513 135.36 58.7028 135.293 58.6402C135.225 58.5777 135.17 58.5023 135.132 58.4185C135.093 58.3347 135.071 58.244 135.068 58.1516C135.064 58.0593 135.078 57.9671 135.109 57.8803L135.164 57.6187C136.432 54.1263 140.633 51.9284 144.097 53.206L149.091 55.0476C152.555 56.3252 154.061 60.4606 152.794 63.953L152.649 64.3485C152.586 64.5238 152.456 64.6665 152.288 64.7451C152.12 64.8237 151.928 64.8318 151.754 64.7677Z" fill="#2F2E41"/>
<path d="M152.628 65.0998C130.009 65.9411 128.032 63.0762 134.924 58.5711L136.386 55.8591L153.143 62.0175L152.628 65.0998Z" fill="#2F2E41"/>
<path d="M148.193 54.6181C148.318 54.1993 147.783 53.667 146.998 53.4293C146.213 53.1915 145.476 53.3382 145.351 53.757C145.226 54.1758 145.761 54.708 146.546 54.9458C147.33 55.1836 148.068 55.0368 148.193 54.6181Z" fill="#2F2E41"/>
<path d="M49.4999 0C33.2814 0 20.0888 13.2987 20.0888 29.6476C20.0841 33.8325 20.9632 37.9705 22.6675 41.7865C27.2768 52.0992 37.5684 59.2952 49.4999 59.2952C57.2989 59.2909 64.7772 56.1659 70.2919 50.6068C75.8066 45.0478 78.9067 37.5093 78.911 29.6476C78.911 13.2987 65.716 0 49.4999 0ZM73.8334 41.566C71.6125 46.1671 68.1536 50.0466 63.8512 52.7619C59.5488 55.4773 54.576 56.9193 49.4999 56.9234C38.0343 56.9234 28.2109 49.6965 24.2793 39.5238C23.0608 36.3762 22.4375 33.0264 22.4416 29.6476C22.4416 14.608 34.5802 2.37181 49.4999 2.37181C64.4195 2.37181 76.5581 14.608 76.5581 29.6476C76.5632 33.7778 75.6312 37.8545 73.8334 41.566Z" fill="white"/>
<path d="M49.4998 59.3832C43.9288 59.3787 38.4727 57.7859 33.7614 54.7887C29.0502 51.7915 25.276 47.5122 22.8746 42.4449C22.7787 42.2428 22.7371 42.019 22.7539 41.7957C22.7706 41.5723 22.8452 41.3574 22.9702 41.1722L22.9859 41.1489C23.1107 40.9667 23.2808 40.8208 23.4792 40.7258C23.6775 40.6308 23.8972 40.5901 24.1161 40.6078C24.335 40.6254 24.5455 40.7008 24.7264 40.8264C24.9073 40.9519 25.0522 41.1232 25.1466 41.3231C29.6088 50.7465 39.1679 56.8355 49.4998 56.8355C54.2213 56.8234 58.8577 55.5671 62.9489 53.1913C67.0401 50.8154 70.444 47.4026 72.8229 43.2913C72.9335 43.0982 73.0928 42.9381 73.2847 42.8272C73.4766 42.7163 73.6942 42.6587 73.9154 42.66C74.1342 42.6594 74.3493 42.7177 74.5383 42.8288C74.7274 42.9399 74.8837 43.0998 74.991 43.2921L75.0047 43.3164C75.1136 43.5104 75.1702 43.7297 75.1691 43.9526C75.1679 44.1755 75.109 44.3943 74.9981 44.5871C72.3955 49.0793 68.6734 52.8079 64.2008 55.4032C59.7283 57.9986 54.6605 59.3706 49.4998 59.3832Z" fill="#37D4FF"/>
<path d="M42.8708 32.3593C43.6702 32.3541 44.4467 32.6287 45.0676 33.1364C45.6885 33.644 46.1154 34.3531 46.2754 35.1426C46.4353 35.9322 46.3185 36.7532 45.9448 37.4656C45.5711 38.178 44.9637 38.7376 44.2263 39.0488C43.4889 39.36 42.6672 39.4036 41.9014 39.172C41.1357 38.9405 40.4734 38.4482 40.0277 37.7793C39.5819 37.1103 39.3803 36.3061 39.4573 35.504C39.5342 34.7019 39.885 33.9516 40.4496 33.3811C40.7661 33.0579 41.1431 32.8011 41.5587 32.6257C41.9743 32.4503 42.4203 32.3598 42.8708 32.3593ZM42.8708 30.877C41.9011 30.8764 40.9531 31.1658 40.1466 31.7084C39.34 32.251 38.7112 33.0225 38.3397 33.9254C37.9681 34.8282 37.8705 35.8219 38.0591 36.7807C38.2478 37.7395 38.7143 38.6203 39.3996 39.3119C40.0849 40.0034 40.9582 40.4746 41.9091 40.6658C42.8601 40.857 43.8459 40.7597 44.7419 40.3861C45.638 40.0125 46.404 39.3795 46.9432 38.567C47.4823 37.7546 47.7704 36.7992 47.7709 35.8218C47.7716 34.511 47.2557 33.2537 46.3368 32.3264C45.4178 31.399 44.1711 30.8777 42.8708 30.877ZM53.0859 23.8092C53.5294 23.8114 53.9556 23.636 54.2708 23.3215C54.586 23.007 54.7643 22.5792 54.7666 22.1321C54.7666 22.1264 54.7666 22.1207 54.7666 22.115C54.7686 21.896 54.7279 21.6788 54.6467 21.4756C54.5654 21.2725 54.4453 21.0875 54.2932 20.9312C54.141 20.7748 53.9598 20.6502 53.7599 20.5645C53.56 20.4788 53.3452 20.4336 53.128 20.4315C53.1175 20.4314 53.107 20.4314 53.0964 20.4315C52.6521 20.4272 52.2243 20.6011 51.9072 20.9149C51.59 21.2286 51.4095 21.6565 51.4053 22.1044C51.4011 22.5523 51.5736 22.9835 51.8848 23.3032C52.196 23.6229 52.6205 23.8049 53.0648 23.8091C53.0719 23.8092 53.0789 23.8092 53.0859 23.8092ZM56.5995 32.3593C57.3989 32.3541 58.1754 32.6287 58.7963 33.1363C59.4172 33.644 59.8441 34.3531 60.0041 35.1426C60.164 35.9322 60.0472 36.7532 59.6735 37.4656C59.2998 38.178 58.6924 38.7376 57.955 39.0488C57.2176 39.36 56.3959 39.4036 55.6301 39.172C54.8644 38.9405 54.2021 38.4482 53.7564 37.7793C53.3106 37.1103 53.109 36.3061 53.186 35.504C53.2629 34.7019 53.6137 33.9516 54.1783 33.3811C54.4948 33.0579 54.8718 32.8011 55.2874 32.6257C55.703 32.4503 56.149 32.3598 56.5995 32.3593ZM56.5995 30.877C55.6304 30.877 54.683 31.1667 53.8772 31.7094C53.0713 32.2522 52.4433 33.0236 52.0724 33.9262C51.7015 34.8288 51.6045 35.8219 51.7936 36.7801C51.9826 37.7383 52.4493 38.6184 53.1346 39.3092C53.8199 40 54.693 40.4705 55.6435 40.6611C56.5941 40.8517 57.5793 40.7538 58.4747 40.38C59.3701 40.0061 60.1354 39.373 60.6738 38.5607C61.2122 37.7484 61.4996 36.7934 61.4996 35.8165C61.4996 35.1678 61.3729 34.5255 61.1266 33.9262C60.8804 33.3269 60.5194 32.7824 60.0644 32.3237C59.6094 31.865 59.0692 31.5012 58.4747 31.253C57.8802 31.0047 57.243 30.877 56.5995 30.877Z" fill="white"/>
<path d="M55.6174 27.2081H53.0964L51.5471 24.0262C51.4221 23.8031 51.2474 23.6123 51.0368 23.4687C50.8263 23.3252 50.5855 23.2328 50.3335 23.199C50.0816 23.1651 49.8252 23.1906 49.5847 23.2736C49.3442 23.3565 49.126 23.4945 48.9474 23.6768L45.1817 27.3351C44.8734 27.6523 44.6985 28.0771 44.6932 28.521C44.6932 29.4422 45.355 29.7705 45.6648 29.9558C48.0545 31.3428 48.8948 31.4964 48.8948 32.1899V35.6788C48.8948 35.9035 48.9834 36.1189 49.1409 36.2778C49.2985 36.4366 49.5123 36.5259 49.7351 36.5259C49.958 36.5259 50.1717 36.4366 50.3293 36.2778C50.4869 36.1189 50.5755 35.9035 50.5755 35.6788V30.914C50.5755 30.2152 48.9788 29.6434 48.0387 28.9022L50.607 26.1757C51.5891 27.6846 52.0408 28.9022 52.6027 28.9022H55.6174C55.8402 28.9026 56.0541 28.8137 56.2119 28.6551C56.3698 28.4965 56.4587 28.2812 56.459 28.0565C56.4594 27.8319 56.3712 27.6163 56.2139 27.4571C56.0565 27.298 55.8429 27.2084 55.6201 27.2081L55.6174 27.2081Z" fill="#E6E6E6"/>
<path d="M25.8432 75.2828C25.1193 75.2828 24.5199 77.4073 24.4038 80.193H10.4776C10.3614 77.4073 9.76211 75.2828 9.0382 75.2828C8.23117 75.2828 7.5769 77.9209 7.5769 81.175C7.5769 84.4292 8.23117 87.0672 9.0382 87.0672C9.76211 87.0672 10.3614 84.9427 10.4776 82.1571H24.4038C24.5199 84.9427 25.1193 87.0672 25.8432 87.0672C26.6502 87.0672 27.3045 84.4292 27.3045 81.175C27.3045 77.9209 26.6502 75.2828 25.8432 75.2828Z" fill="white"/>
<path d="M32.6267 72.4755C30.5627 68.7463 27.2209 65.9034 23.2271 64.479C19.2334 63.0547 14.8615 63.1466 10.9302 64.7376C6.99886 66.3286 3.7776 69.3095 1.86958 73.1223C-0.0384316 76.935 -0.502358 81.3181 0.564669 85.4508C1.6317 89.5835 4.15651 93.1825 7.66635 95.5738C11.1762 97.9651 15.4304 98.9848 19.6323 98.442C23.8343 97.8991 27.6959 95.8309 30.4941 92.6246C33.2922 89.4184 34.8351 85.2939 34.8337 81.0235C34.8328 78.0312 34.0731 75.0887 32.6267 72.4755ZM17.413 97.1779C13.1907 97.1562 9.14931 95.4473 6.17518 92.4261C3.20105 89.4049 1.53697 85.318 1.54789 81.0617C1.55882 76.8054 3.24386 72.7273 6.23346 69.7216C9.22305 66.7159 13.2731 65.0282 17.4955 65.0285C21.7178 65.0287 25.7677 66.717 28.7569 69.7231C31.7461 72.7291 33.4306 76.8075 33.441 81.0638C33.4514 85.3201 31.7868 89.4068 28.8122 92.4276C25.8377 95.4484 21.7961 97.1567 17.5738 97.1779C17.5202 97.1782 17.4666 97.1782 17.413 97.1779Z" fill="white"/>
<path d="M17.4214 98.6724C14.1021 98.674 10.851 97.7224 8.04866 95.929C7.9087 95.8391 7.80069 95.7066 7.74019 95.5508L7.73141 95.528C7.67058 95.3736 7.66058 95.2036 7.70288 95.043C7.74519 94.8825 7.83756 94.7399 7.96637 94.6363C8.09088 94.5308 8.24576 94.4684 8.40813 94.4584C8.57049 94.4484 8.73175 94.4913 8.86809 94.5808C11.8467 96.492 15.3707 97.3515 18.8866 97.0245C22.4024 96.6974 25.7109 95.2023 28.2922 92.7739C30.8736 90.3455 32.5814 87.1215 33.1476 83.6083C33.7138 80.0952 33.1061 76.492 31.4201 73.3648C31.3411 73.2214 31.3098 73.0562 31.3309 72.8936C31.3521 72.731 31.4245 72.5795 31.5375 72.4615C31.6491 72.3391 31.7968 72.2561 31.9588 72.2247C32.1207 72.1933 32.2884 72.2151 32.4371 72.2871L32.459 72.2974C32.6081 72.3678 32.7313 72.4841 32.8107 72.6296C34.2538 75.3163 34.9801 78.3347 34.9184 81.3893C34.8567 84.4439 34.0091 87.43 32.4587 90.0552C30.9082 92.6804 28.708 94.8547 26.0735 96.3653C23.439 97.8758 20.4605 98.6708 17.4296 98.6724H17.4214Z" fill="#37D4FF"/>
<path d="M81.5786 63.4658C79.2905 63.4648 77.0246 63.9182 74.9103 64.8C72.7961 65.6819 70.8749 66.975 69.2564 68.6054C67.638 70.2359 66.354 72.1717 65.4779 74.3024C64.6017 76.4332 64.1506 78.717 64.1501 81.0235C64.1497 83.33 64.6001 85.614 65.4755 87.7451C66.3508 89.8761 67.6341 91.8124 69.2519 93.4435C70.8698 95.0745 72.7905 96.3683 74.9045 97.2509C77.0184 98.1336 79.2842 98.5878 81.5723 98.5876H81.5786C81.6915 98.5876 81.8021 98.5876 81.9151 98.5828C86.5054 98.4938 90.8752 96.5816 94.0744 93.2621C97.2735 89.9426 99.0434 85.4842 98.999 80.8564C98.9547 76.2285 97.0997 71.8054 93.8376 68.5488C90.5754 65.2923 86.1698 63.4655 81.5786 63.4658ZM85.1291 96.7803C82.9302 97.2836 80.6507 97.3136 78.4395 96.8682C76.2283 96.4228 74.1353 95.512 72.2971 94.1955C70.459 92.879 68.9171 91.1862 67.7723 89.2279C66.6275 87.2696 65.9055 85.0899 65.6535 82.8311C65.4015 80.5723 65.6252 78.2853 66.3099 76.1197C66.9947 73.954 68.1251 71.9583 69.6272 70.2631C71.1294 68.5679 72.9695 67.2113 75.0273 66.2819C77.0851 65.3526 79.3143 64.8715 81.5692 64.8699H81.5786C85.5201 64.8697 89.3234 66.3335 92.2617 68.9817C95.2001 71.6298 97.0673 75.2766 97.5067 79.225C97.946 83.1733 96.9265 87.1465 94.6432 90.385C92.3598 93.6235 88.9727 95.9003 85.1291 96.7803Z" fill="white"/>
<path d="M81.5786 98.6755C77.2579 98.6755 73.0898 97.0649 69.876 94.1537C66.6623 91.2424 64.63 87.2361 64.17 82.9054C63.71 78.5747 64.8548 74.2254 67.3842 70.6943C69.9137 67.1632 73.649 64.6996 77.8718 63.7774C77.9757 63.755 78.083 63.7536 78.1874 63.7733L78.2237 63.7803C78.3989 63.8145 78.557 63.9087 78.6714 64.0468C78.7857 64.1849 78.8493 64.3585 78.8514 64.5384C78.8535 64.7183 78.7939 64.8934 78.6828 65.0342C78.5717 65.1749 78.4158 65.2727 78.2414 65.3111C74.3921 66.143 70.9842 68.3813 68.6743 71.5948C66.3644 74.8084 65.3158 78.7699 65.7304 82.7163C66.1451 86.6627 67.9938 90.3148 70.9203 92.9692C73.8468 95.6237 77.6442 97.0926 81.581 97.0931C81.735 97.0917 81.8846 97.091 82.0366 97.0865C82.2061 97.0794 82.3727 97.1327 82.5071 97.237C82.6416 97.3413 82.7353 97.49 82.7719 97.657C82.812 97.8183 82.7942 97.9888 82.7216 98.1381C82.649 98.2875 82.5264 98.4062 82.3753 98.4731C82.2727 98.5205 82.1697 98.5671 82.0663 98.6127C81.9791 98.6516 81.8851 98.6726 81.7898 98.6744C81.7195 98.6755 81.6495 98.6755 81.5786 98.6755Z" fill="#37D4FF"/>
<path d="M90.1729 80.28C89.7088 80.2566 89.2498 80.3868 88.8659 80.6509C88.4821 80.915 88.1946 81.2984 88.0471 81.7427H86.3315L85.079 77.946C85.0325 77.8037 84.9427 77.6798 84.8223 77.592C84.702 77.5042 84.5572 77.4569 84.4086 77.4569H84.3954C84.2446 77.4593 84.0987 77.5108 83.9794 77.6037C83.8601 77.6967 83.774 77.8261 83.7338 77.9726L81.7712 84.877L79.4646 70.9127C79.4378 70.7511 79.3567 70.6036 79.2349 70.4952C79.113 70.3867 78.9579 70.3238 78.7955 70.317C78.633 70.3102 78.4732 70.36 78.3429 70.4579C78.2126 70.5559 78.1197 70.6961 78.0798 70.8549L75.7423 81.7427H73.1225C72.9354 81.7427 72.7559 81.8176 72.6236 81.951C72.4912 82.0844 72.4169 82.2654 72.4169 82.454C72.4169 82.6427 72.4912 82.8236 72.6236 82.957C72.7559 83.0904 72.9354 83.1653 73.1225 83.1653H76.298C76.4552 83.1656 76.6079 83.1127 76.7318 83.0152C76.8557 82.9177 76.9436 82.7812 76.9816 82.6274L78.631 74.5271L80.8935 88.2158C80.9194 88.3752 80.9988 88.5209 81.1184 88.6285C81.238 88.7361 81.3906 88.7992 81.5507 88.807H81.5904C81.7437 88.8068 81.8929 88.7565 82.0153 88.6635C82.1378 88.5704 82.227 88.4399 82.2696 88.2913L84.4615 80.5734L85.1539 82.6763C85.2011 82.8181 85.2911 82.9415 85.4113 83.0292C85.5315 83.1168 85.6759 83.1645 85.8243 83.1653H88.078C88.2127 83.5251 88.4414 83.8414 88.7397 84.081C89.0381 84.3205 89.3951 84.4744 89.7731 84.5262C90.151 84.5781 90.5359 84.5262 90.8869 84.3758C91.238 84.2254 91.5422 83.9822 91.7675 83.672C91.9928 83.3617 92.1308 82.9958 92.1668 82.613C92.2028 82.2302 92.1356 81.8447 91.9723 81.4973C91.8089 81.1498 91.5555 80.8533 91.2388 80.639C90.922 80.4248 90.5538 80.3007 90.1729 80.28Z" fill="white"/>
</g>
<defs>
<clipPath id="clip0_32_1371">
<rect width="159" height="128" fill="white"/>
</clipPath>
</defs>
</svg>
