<svg width="32" height="32" viewBox="0 0 32 32" fill="none" xmlns="http://www.w3.org/2000/svg">
<g id="Vector" filter="url(#filter0_d_146_500)">
<path d="M23 2H22V1C22 0.448 21.553 0 21 0C20.447 0 20 0.448 20 1V2H12V1C12 0.448 11.553 0 11 0C10.447 0 10 0.448 10 1V2H9C6.243 2 4 4.243 4 7V19C4 21.757 6.243 24 9 24H23C25.757 24 28 21.757 28 19V7C28 4.243 25.757 2 23 2ZM9 4H23C24.654 4 26 5.346 26 7V8H6V7C6 5.346 7.346 4 9 4ZM23 22H9C7.346 22 6 20.654 6 19V10H26V19C26 20.654 24.654 22 23 22ZM21.832 13.152C22.216 13.549 22.204 14.183 21.807 14.566L17.067 19.134C16.514 19.687 15.76 20 14.959 20C14.158 20 13.404 19.688 12.838 19.121L10.586 17.029C10.182 16.653 10.158 16.02 10.534 15.616C10.912 15.211 11.544 15.189 11.947 15.564L14.225 17.681C14.658 18.111 15.288 18.083 15.664 17.707L20.418 13.125C20.816 12.742 21.448 12.755 21.832 13.152Z" fill="#37D4FF"/>
</g>
<defs>
<filter id="filter0_d_146_500" x="0" y="0" width="32" height="32" filterUnits="userSpaceOnUse" color-interpolation-filters="sRGB">
<feFlood flood-opacity="0" result="BackgroundImageFix"/>
<feColorMatrix in="SourceAlpha" type="matrix" values="0 0 0 0 0 0 0 0 0 0 0 0 0 0 0 0 0 0 127 0" result="hardAlpha"/>
<feOffset dy="4"/>
<feGaussianBlur stdDeviation="2"/>
<feComposite in2="hardAlpha" operator="out"/>
<feColorMatrix type="matrix" values="0 0 0 0 0.216667 0 0 0 0 0.831215 0 0 0 0 1 0 0 0 0.35 0"/>
<feBlend mode="normal" in2="BackgroundImageFix" result="effect1_dropShadow_146_500"/>
<feBlend mode="normal" in="SourceGraphic" in2="effect1_dropShadow_146_500" result="shape"/>
</filter>
</defs>
</svg>
