<svg width="32" height="32" viewBox="0 0 32 32" fill="none" xmlns="http://www.w3.org/2000/svg">
<g filter="url(#filter0_d_146_279)">
<path d="M8.00065 6.52729C7.60642 6.52842 7.21589 6.44417 6.85167 6.2794C6.48744 6.11463 6.15675 5.87263 5.87872 5.56738L4.33477 4.06691C4.13666 3.87401 4.01683 3.60307 4.00164 3.31369C3.98645 3.02431 4.07715 2.74019 4.25378 2.52384C4.4304 2.30749 4.6785 2.17662 4.94348 2.16003C5.20846 2.14345 5.46862 2.24249 5.66673 2.43539L7.25168 3.97954C7.34241 4.09082 7.45304 4.18064 7.57674 4.24348C7.70045 4.30632 7.83463 4.34085 7.97101 4.34494C8.1074 4.34903 8.2431 4.3226 8.36978 4.26727C8.49647 4.21195 8.61144 4.12889 8.70763 4.02322L12.3115 0.276404C12.5053 0.0879928 12.7586 -0.0107844 13.0178 0.000935437C13.277 0.0126553 13.5219 0.133955 13.7008 0.339213C13.8797 0.544471 13.9785 0.817617 13.9764 1.10096C13.9742 1.3843 13.8714 1.65565 13.6895 1.85769L10.1006 5.58595C9.82437 5.88584 9.49673 6.12334 9.13641 6.28487C8.77609 6.44639 8.39015 6.52877 8.00065 6.52729ZM28 4.34319C28 4.05357 27.8946 3.7758 27.7071 3.571C27.5196 3.3662 27.2652 3.25115 27 3.25115H17.0004C16.7352 3.25115 16.4808 3.3662 16.2933 3.571C16.1057 3.7758 16.0004 4.05357 16.0004 4.34319C16.0004 4.63282 16.1057 4.91059 16.2933 5.11539C16.4808 5.32019 16.7352 5.43524 17.0004 5.43524H27C27.2652 5.43524 27.5196 5.32019 27.7071 5.11539C27.8946 4.91059 28 4.63282 28 4.34319ZM10.1006 14.3223L13.6895 10.5941C13.7896 10.4967 13.8708 10.3783 13.9283 10.2459C13.9857 10.1136 14.0181 9.96994 14.0237 9.82361C14.0292 9.67727 14.0077 9.53121 13.9605 9.39412C13.9133 9.25702 13.8414 9.1317 13.7489 9.0256C13.6565 8.9195 13.5454 8.8348 13.4224 8.77653C13.2993 8.71826 13.1668 8.68762 13.0327 8.68643C12.8986 8.68523 12.7656 8.71351 12.6417 8.76958C12.5178 8.82565 12.4055 8.90836 12.3115 9.0128L8.71163 12.7596C8.52127 12.9584 8.26804 13.0693 8.00465 13.0693C7.74127 13.0693 7.48804 12.9584 7.29768 12.7596L5.70773 11.0287C5.51913 10.8298 5.26654 10.7197 5.00435 10.7222C4.74216 10.7247 4.49136 10.8395 4.30596 11.042C4.12055 11.2445 4.01539 11.5184 4.01311 11.8047C4.01083 12.0911 4.11162 12.3669 4.29377 12.5729L5.87872 14.3038C6.43838 14.9151 7.1966 15.2601 7.98815 15.2636C8.77971 15.2671 9.54044 14.9287 10.1046 14.3223H10.1006ZM28 13.0796C28 12.79 27.8946 12.5122 27.7071 12.3074C27.5196 12.1026 27.2652 11.9875 27 11.9875H17.0004C16.7352 11.9875 16.4808 12.1026 16.2933 12.3074C16.1057 12.5122 16.0004 12.79 16.0004 13.0796C16.0004 13.3692 16.1057 13.647 16.2933 13.8518C16.4808 14.0566 16.7352 14.1716 17.0004 14.1716H27C27.2652 14.1716 27.5196 14.0566 27.7071 13.8518C27.8946 13.647 28 13.3692 28 13.0796ZM10.1006 23.0587L13.6855 19.3305C13.7856 19.2331 13.8668 19.1147 13.9243 18.9823C13.9817 18.85 14.0141 18.7063 14.0197 18.56C14.0252 18.4137 14.0037 18.2676 13.9565 18.1305C13.9093 17.9934 13.8374 17.8681 13.7449 17.762C13.6525 17.6559 13.5414 17.5712 13.4184 17.5129C13.2953 17.4547 13.1628 17.424 13.0287 17.4228C12.8946 17.4216 12.7616 17.4499 12.6377 17.506C12.5138 17.562 12.4015 17.6448 12.3075 17.7492L8.70763 21.496C8.61144 21.6017 8.49647 21.6847 8.36978 21.7401C8.2431 21.7954 8.1074 21.8218 7.97101 21.8177C7.83463 21.8136 7.70045 21.7791 7.57674 21.7163C7.45304 21.6534 7.34241 21.5636 7.25168 21.4523L5.66673 19.9082C5.46862 19.7153 5.20846 19.6162 4.94348 19.6328C4.6785 19.6494 4.4304 19.7803 4.25378 19.9966C4.07715 20.213 3.98645 20.4971 4.00164 20.7865C4.01683 21.0759 4.13666 21.3468 4.33477 21.5397L5.87872 23.0402C6.43838 23.6515 7.1966 23.9965 7.98815 24C8.77971 24.0035 9.54044 23.6651 10.1046 23.0587H10.1006ZM28 21.816C28 21.5264 27.8946 21.2486 27.7071 21.0438C27.5196 20.839 27.2652 20.7239 27 20.7239H17.0004C16.7352 20.7239 16.4808 20.839 16.2933 21.0438C16.1057 21.2486 16.0004 21.5264 16.0004 21.816C16.0004 22.1056 16.1057 22.3834 16.2933 22.5882C16.4808 22.793 16.7352 22.908 17.0004 22.908H27C27.2652 22.908 27.5196 22.793 27.7071 22.5882C27.8946 22.3834 28 22.1056 28 21.816Z" fill="#37D4FF"/>
</g>
<defs>
<filter id="filter0_d_146_279" x="0" y="0" width="32" height="32" filterUnits="userSpaceOnUse" color-interpolation-filters="sRGB">
<feFlood flood-opacity="0" result="BackgroundImageFix"/>
<feColorMatrix in="SourceAlpha" type="matrix" values="0 0 0 0 0 0 0 0 0 0 0 0 0 0 0 0 0 0 127 0" result="hardAlpha"/>
<feOffset dy="4"/>
<feGaussianBlur stdDeviation="2"/>
<feComposite in2="hardAlpha" operator="out"/>
<feColorMatrix type="matrix" values="0 0 0 0 0.216667 0 0 0 0 0.831215 0 0 0 0 1 0 0 0 0.35 0"/>
<feBlend mode="normal" in2="BackgroundImageFix" result="effect1_dropShadow_146_279"/>
<feBlend mode="normal" in="SourceGraphic" in2="effect1_dropShadow_146_279" result="shape"/>
</filter>
</defs>
</svg>
