<svg width="262" height="191" viewBox="0 0 262 191" fill="none" xmlns="http://www.w3.org/2000/svg">
<g clip-path="url(#clip0_32_1322)">
<path d="M159.354 90.3842C158.541 90.3829 157.759 90.0738 157.167 89.5193C156.574 88.9648 156.214 88.2065 156.161 87.3977L155.686 80.1578C155.63 79.3121 155.914 78.4791 156.474 77.842C157.035 77.2049 157.826 76.8158 158.674 76.7604L215.566 73.0458C217.377 72.9289 219.159 73.5335 220.523 74.7267C221.886 75.9198 222.719 77.6039 222.837 79.4087C222.956 81.2136 222.351 82.9915 221.155 84.3518C219.959 85.712 218.271 86.5432 216.461 86.6628L159.569 90.3772C159.497 90.3818 159.426 90.3841 159.354 90.3842Z" fill="#37D4FF"/>
<path d="M170.573 91.3177C169.744 91.3164 168.948 90.9953 168.351 90.4219C167.754 89.8485 167.403 89.0672 167.372 88.2415L166.966 77.4278C166.95 77.0085 167.018 76.5902 167.164 76.1968C167.311 75.8034 167.533 75.4427 167.82 75.1351C168.106 74.8275 168.45 74.5792 168.833 74.4043C169.215 74.2294 169.629 74.1313 170.049 74.1157L216.833 72.3723C217.682 72.3407 218.51 72.6468 219.133 73.2233C219.756 73.7997 220.124 74.5993 220.155 75.4462L220.561 86.2599C220.577 86.6792 220.509 87.0975 220.363 87.4909C220.216 87.8843 219.994 88.245 219.707 88.5526C219.421 88.8602 219.077 89.1085 218.694 89.2834C218.312 89.4583 217.898 89.5564 217.478 89.572L170.694 91.3153C170.653 91.317 170.613 91.3177 170.573 91.3177Z" fill="#2F2E41"/>
<path d="M225.396 191H218.119C217.269 190.999 216.454 190.662 215.854 190.063C215.253 189.464 214.915 188.652 214.914 187.805V127.334C214.915 126.487 215.253 125.675 215.854 125.076C216.454 124.477 217.269 124.14 218.119 124.139H225.396C226.246 124.14 227.06 124.477 227.661 125.076C228.262 125.675 228.6 126.487 228.601 127.334V187.805C228.6 188.652 228.262 189.464 227.661 190.063C227.06 190.662 226.246 190.999 225.396 191Z" fill="#2F2E41"/>
<path d="M207.125 191H199.847C198.997 190.999 198.183 190.662 197.582 190.063C196.981 189.464 196.643 188.652 196.642 187.805V127.334C196.643 126.487 196.981 125.675 197.582 125.076C198.183 124.477 198.997 124.14 199.847 124.139H207.125C207.974 124.14 208.789 124.477 209.39 125.076C209.99 125.675 210.328 126.487 210.329 127.334V187.805C210.328 188.652 209.99 189.464 209.39 190.063C208.789 190.662 207.974 190.999 207.125 191Z" fill="#2F2E41"/>
<path d="M214.343 61.0306C228.231 61.0306 239.489 49.8062 239.489 35.9602C239.489 22.1142 228.231 10.8898 214.343 10.8898C200.456 10.8898 189.198 22.1142 189.198 35.9602C189.198 49.8062 200.456 61.0306 214.343 61.0306Z" fill="#37D4FF"/>
<path d="M200.732 44.5201C199.923 44.2551 199.181 43.8206 198.554 43.2456C198.139 42.8351 197.819 42.3391 197.617 41.7923C197.414 41.2455 197.334 40.6612 197.382 40.0803C197.408 39.6665 197.53 39.2643 197.738 38.9052C197.946 38.5461 198.235 38.2398 198.581 38.0103C199.481 37.4352 200.683 37.4335 201.908 37.9715L201.862 28.1844L202.848 28.1797L202.902 39.6855L202.142 39.209C201.261 38.6574 200.003 38.2691 199.114 38.8378C198.894 38.9881 198.712 39.1869 198.582 39.4187C198.452 39.6505 198.377 39.9091 198.364 40.1744C198.331 40.6071 198.391 41.0419 198.542 41.4491C198.692 41.8564 198.929 42.2265 199.235 42.5344C200.324 43.5714 201.913 43.8957 203.724 44.1855L203.568 45.1562C202.606 45.029 201.656 44.8162 200.732 44.5201Z" fill="#2F2E41"/>
<path d="M191.697 27.6908L191.568 28.6654L196.833 29.3587L196.962 28.3841L191.697 27.6908Z" fill="#2F2E41"/>
<path d="M208.316 29.8776L208.187 30.8522L213.452 31.5454L213.581 30.5709L208.316 29.8776Z" fill="#2F2E41"/>
<path d="M192.937 143.558C191.826 143.557 190.761 143.116 189.975 142.333C189.189 141.55 188.748 140.488 188.746 139.38C188.746 139.38 195.428 103.237 199.246 82.0529C199.988 77.9336 202.159 74.2055 205.378 71.5203C208.598 68.8352 212.662 67.3639 216.86 67.3638C222.873 67.3638 228.639 69.7451 232.891 73.9839C237.142 78.2228 239.531 83.9719 239.531 89.9665V97.1042C239.531 109.425 234.622 121.24 225.884 129.952C217.146 138.664 205.295 143.558 192.937 143.558Z" fill="#2F2E41"/>
<path d="M224.663 139.94C224.405 140.501 223.99 140.976 223.468 141.307C222.946 141.638 222.339 141.812 221.72 141.807L214.443 141.744C214.022 141.74 213.606 141.654 213.219 141.49C212.832 141.326 212.48 141.088 212.185 140.788C211.89 140.489 211.657 140.135 211.5 139.746C211.342 139.357 211.263 138.941 211.266 138.521L211.761 81.6799C211.768 80.7836 211.952 79.8975 212.303 79.0723C212.654 78.2471 213.165 77.4989 213.806 76.8704C214.447 76.242 215.206 75.7456 216.039 75.4097C216.873 75.0737 217.764 74.9048 218.663 74.9126C219.562 74.9204 220.451 75.1047 221.278 75.455C222.106 75.8052 222.856 76.3147 223.486 76.9541C224.116 77.5935 224.613 78.3505 224.95 79.1816C225.286 80.0128 225.455 80.9019 225.447 81.7982L224.953 138.639C224.949 139.089 224.851 139.532 224.663 139.94Z" fill="#37D4FF"/>
<path d="M227.877 124.766C227.62 125.327 227.205 125.801 226.683 126.132C226.161 126.464 225.554 126.637 224.935 126.633L212.506 126.525C211.656 126.517 210.844 126.173 210.249 125.569C209.653 124.964 209.322 124.149 209.329 123.302L209.735 76.6275C209.738 76.2079 209.825 75.7931 209.989 75.4069C210.154 75.0206 210.393 74.6704 210.693 74.3763C210.993 74.0821 211.348 73.8498 211.739 73.6926C212.129 73.5354 212.546 73.4564 212.967 73.4601L225.397 73.5675C225.817 73.5711 226.233 73.6573 226.621 73.8213C227.008 73.9852 227.359 74.2236 227.654 74.5229C227.949 74.8222 228.182 75.1764 228.34 75.5655C228.498 75.9545 228.577 76.3707 228.573 76.7903L228.168 123.465C228.164 123.914 228.065 124.358 227.877 124.766Z" fill="#2F2E41"/>
<path d="M207.085 21.1872C203.166 21.8503 198.791 22.6085 195.057 20.7968C192.118 19.3708 190.098 16.5228 190.814 13.1764C192.238 6.51677 199.885 3.57245 206.031 4.16663C209.645 4.50305 213.044 6.03085 215.69 8.5085C215.815 8.62706 215.972 8.70685 216.142 8.73821C216.312 8.76958 216.488 8.75118 216.647 8.68525C216.807 8.61931 216.944 8.50865 217.042 8.36667C217.14 8.22469 217.194 8.05746 217.199 7.88521C217.173 5.42777 219.017 3.37713 221.202 2.45144C223.938 1.29244 227.116 1.70662 229.928 2.32684C237.621 4.03738 244.608 8.0464 249.956 13.8189C255.304 19.5914 258.759 26.8528 259.86 34.6341C260.643 40.112 260.223 45.6941 258.63 50.9943C257.138 55.8801 254.383 60.7907 249.848 63.4488C245.761 65.8441 239.818 66.4609 236.046 63.1004C233.025 60.4086 231.664 55.3764 234.142 51.8939C234.872 50.884 235.863 50.09 237.009 49.5959C238.155 49.1019 239.414 48.9263 240.652 49.0877C241.823 49.2722 242.917 49.7879 243.802 50.5734C244.688 51.3589 245.329 52.3813 245.65 53.5192C245.885 54.6119 245.813 55.7482 245.44 56.8023C245.068 57.8565 244.41 58.7874 243.54 59.4921C242.89 59.958 242.151 60.287 241.369 60.4591C240.587 60.6311 239.778 60.6427 238.992 60.4929C238.205 60.3432 237.457 60.0354 236.794 59.5882C236.13 59.141 235.565 58.5638 235.133 57.8918C234.532 56.931 233.002 57.8151 233.606 58.7816C234.3 59.8635 235.25 60.7581 236.374 61.3863C237.497 62.0145 238.758 62.3569 240.046 62.3831C241.329 62.4065 242.596 62.0892 243.716 61.4639C244.836 60.8385 245.769 59.9276 246.42 58.8243C247.118 57.6985 247.506 56.4093 247.545 55.0865C247.584 53.7636 247.273 52.4538 246.643 51.2888C245.955 50.1007 244.974 49.1073 243.793 48.4023C242.612 47.6973 241.27 47.3041 239.895 47.2599C238.468 47.2487 237.06 47.5837 235.791 48.236C234.523 48.8883 233.433 49.8384 232.615 51.0042C231.292 53.0215 230.804 55.4715 231.253 57.8399C231.652 60.2487 232.821 62.4643 234.587 64.1556C236.631 66.0004 239.262 67.0674 242.017 67.1688C248.013 67.5097 253.365 64.0661 256.672 59.2794C260.103 54.3125 261.637 48.0798 261.946 42.121C262.261 36.0477 261.198 29.9817 258.836 24.3746C256.475 18.7675 252.875 13.7637 248.305 9.73571C243.958 5.94282 238.861 3.10313 233.342 1.40081C227.88 -0.267406 220.254 -1.48341 216.565 4.08097C215.815 5.20775 215.42 6.5327 215.431 7.88526L216.94 7.26197C211.603 2.17732 203.213 0.892503 196.549 4.01799C193.202 5.58781 190.3 8.50691 189.26 12.1061C188.181 15.8406 189.742 19.506 192.943 21.624C197.3 24.5064 202.703 23.7082 207.555 22.8872C208.675 22.6977 208.2 20.9985 207.085 21.1872Z" fill="#2F2E41"/>
<path d="M151.792 129.549H8.61057C6.3277 129.546 4.13908 128.641 2.52485 127.031C0.910619 125.422 0.00260453 123.24 0 120.964V35.6065C0.00260453 33.3305 0.910619 31.1484 2.52485 29.539C4.13908 27.9296 6.3277 27.0243 8.61057 27.0217H151.792C154.075 27.0243 156.263 27.9296 157.878 29.539C159.492 31.1484 160.4 33.3305 160.403 35.6065V120.964C160.4 123.24 159.492 125.422 157.878 127.031C156.263 128.641 154.075 129.546 151.792 129.549ZM8.61057 28.4934C6.71906 28.4956 4.90564 29.2457 3.56814 30.5792C2.23063 31.9127 1.47827 33.7207 1.4761 35.6065V120.964C1.47827 122.85 2.23063 124.658 3.56814 125.991C4.90564 127.325 6.71906 128.075 8.61057 128.077H151.792C153.684 128.075 155.497 127.325 156.834 125.991C158.172 124.658 158.924 122.85 158.926 120.964V35.6065C158.924 33.7207 158.172 31.9127 156.834 30.5792C155.497 29.2457 153.684 28.4956 151.792 28.4934H8.61057Z" fill="#3F3D56"/>
<path d="M27.7998 47.1347C26.5834 47.1347 25.3943 46.7751 24.3828 46.1013C23.3714 45.4275 22.5831 44.4698 22.1176 43.3493C21.6521 42.2288 21.5303 40.9959 21.7676 39.8064C22.0049 38.6169 22.5907 37.5243 23.4508 36.6667C24.311 35.8092 25.4069 35.2252 26.5999 34.9886C27.793 34.752 29.0296 34.8734 30.1535 35.3375C31.2773 35.8016 32.2379 36.5876 32.9137 37.596C33.5895 38.6044 33.9502 39.7899 33.9502 41.0027C33.9484 42.6285 33.2998 44.1871 32.1468 45.3367C30.9938 46.4862 29.4305 47.1329 27.7998 47.1347ZM27.7998 36.3424C26.8753 36.3424 25.9716 36.6157 25.2029 37.1278C24.4342 37.6399 23.8351 38.3677 23.4813 39.2193C23.1275 40.0708 23.035 41.0079 23.2153 41.9119C23.3957 42.8159 23.8409 43.6463 24.4946 44.2981C25.1483 44.9498 25.9812 45.3937 26.8879 45.5735C27.7946 45.7533 28.7345 45.661 29.5886 45.3083C30.4427 44.9555 31.1727 44.3582 31.6864 43.5918C32.2 42.8255 32.4741 41.9244 32.4741 41.0027C32.4727 39.7672 31.9798 38.5826 31.1035 37.7089C30.2272 36.8352 29.0391 36.3438 27.7998 36.3424Z" fill="#3F3D56"/>
<path d="M131.619 47.1347C130.402 47.1347 129.213 46.7751 128.202 46.1013C127.19 45.4275 126.402 44.4698 125.936 43.3493C125.471 42.2288 125.349 40.9959 125.586 39.8064C125.824 38.6169 126.41 37.5243 127.27 36.6667C128.13 35.8092 129.226 35.2252 130.419 34.9886C131.612 34.752 132.848 34.8734 133.972 35.3375C135.096 35.8016 136.057 36.5876 136.733 37.596C137.408 38.6044 137.769 39.7899 137.769 41.0027C137.767 42.6285 137.119 44.1871 135.966 45.3367C134.813 46.4862 133.249 47.1329 131.619 47.1347ZM131.619 36.3424C130.694 36.3424 129.79 36.6157 129.022 37.1278C128.253 37.6399 127.654 38.3677 127.3 39.2193C126.946 40.0708 126.854 41.0079 127.034 41.9119C127.215 42.8159 127.66 43.6463 128.313 44.2981C128.967 44.9498 129.8 45.3937 130.707 45.5735C131.613 45.7533 132.553 45.661 133.407 45.3083C134.262 44.9555 134.992 44.3582 135.505 43.5918C136.019 42.8255 136.293 41.9244 136.293 41.0027C136.292 39.7672 135.799 38.5826 134.922 37.7089C134.046 36.8352 132.858 36.3438 131.619 36.3424Z" fill="#3F3D56"/>
<path d="M42.3148 84.4173H15.745C14.6362 84.416 13.5732 83.9762 12.7892 83.1945C12.0051 82.4128 11.5641 81.353 11.5627 80.2475V64.5496C11.5641 63.4442 12.0051 62.3843 12.7892 61.6026C13.5732 60.8209 14.6362 60.3812 15.745 60.3799H42.3148C43.4236 60.3812 44.4866 60.8209 45.2706 61.6026C46.0547 62.3843 46.4957 63.4442 46.497 64.5496V80.2475C46.4957 81.353 46.0547 82.4128 45.2706 83.1945C44.4866 83.9762 43.4236 84.416 42.3148 84.4173Z" fill="white"/>
<path d="M93.4862 84.4173H66.9164C65.8076 84.416 64.7446 83.9762 63.9605 83.1945C63.1765 82.4128 62.7354 81.353 62.7341 80.2475V64.5496C62.7354 63.4442 63.1765 62.3843 63.9605 61.6026C64.7446 60.8209 65.8076 60.3812 66.9164 60.3799H93.4862C94.595 60.3812 95.658 60.8209 96.442 61.6026C97.2261 62.3843 97.6671 63.4442 97.6684 64.5496V80.2475C97.6671 81.353 97.2261 82.4128 96.442 83.1945C95.658 83.9762 94.595 84.416 93.4862 84.4173Z" fill="white"/>
<path d="M118.088 60.8704C117.109 60.8714 116.171 61.2594 115.479 61.9491C114.788 62.6389 114.399 63.5741 114.397 64.5496V80.2474C114.399 81.2229 114.788 82.1581 115.479 82.8479C116.171 83.5376 117.109 83.9256 118.088 83.9266H144.657C145.636 83.9256 146.574 83.5376 147.266 82.8479C147.957 82.1581 148.347 81.2229 148.348 80.2474V64.5496C148.347 63.5741 147.957 62.6389 147.266 61.9491C146.574 61.2594 145.636 60.8714 144.657 60.8704H118.088Z" fill="white"/>
<path d="M42.5609 115.813H15.9911C14.8823 115.812 13.8193 115.372 13.0353 114.59C12.2512 113.809 11.8102 112.749 11.8088 111.643V95.9454C11.8102 94.8399 12.2512 93.7801 13.0353 92.9984C13.8193 92.2167 14.8823 91.7769 15.9911 91.7756H42.5609C43.6697 91.777 44.7327 92.2167 45.5167 92.9984C46.3008 93.7801 46.7418 94.8399 46.7431 95.9454V111.643C46.7418 112.749 46.3008 113.809 45.5167 114.59C44.7327 115.372 43.6697 115.812 42.5609 115.813Z" fill="white"/>
<path d="M93.7323 115.813H67.1625C66.0537 115.812 64.9907 115.372 64.2066 114.59C63.4226 113.809 62.9815 112.749 62.9802 111.643V95.9454C62.9815 94.8399 63.4226 93.7801 64.2066 92.9984C64.9907 92.2167 66.0537 91.7769 67.1625 91.7756H93.7323C94.8411 91.777 95.9041 92.2167 96.6881 92.9984C97.4722 93.7801 97.9132 94.8399 97.9145 95.9454V111.643C97.9132 112.749 97.4722 113.809 96.6881 114.59C95.9041 115.372 94.8411 115.812 93.7323 115.813Z" fill="white"/>
<path d="M144.904 115.813H118.334C117.225 115.812 116.162 115.372 115.378 114.59C114.594 113.809 114.153 112.749 114.152 111.643V95.9454C114.153 94.8399 114.594 93.7801 115.378 92.9984C116.162 92.2167 117.225 91.7769 118.334 91.7756H144.904C146.012 91.777 147.075 92.2167 147.859 92.9984C148.644 93.7801 149.085 94.8399 149.086 95.9454V111.643C149.085 112.749 148.644 113.809 147.859 114.59C147.075 115.372 146.012 115.812 144.904 115.813Z" fill="white"/>
<path d="M27.7998 42.7197C27.3432 42.7191 26.9055 42.5381 26.5826 42.2162C26.2598 41.8943 26.0782 41.4579 26.0776 41.0027V16.4748C26.0776 16.0194 26.2591 15.5827 26.582 15.2607C26.905 14.9387 27.343 14.7578 27.7998 14.7578C28.2565 14.7578 28.6945 14.9387 29.0175 15.2607C29.3404 15.5827 29.5219 16.0194 29.5219 16.4748V41.0027C29.5213 41.4579 29.3397 41.8943 29.0169 42.2162C28.694 42.5381 28.2563 42.7191 27.7998 42.7197Z" fill="#3F3D56"/>
<path d="M131.619 42.7197C131.162 42.7191 130.724 42.5381 130.401 42.2162C130.079 41.8943 129.897 41.4579 129.896 41.0027V16.4748C129.896 16.0194 130.078 15.5827 130.401 15.2607C130.724 14.9387 131.162 14.7578 131.619 14.7578C132.075 14.7578 132.513 14.9387 132.836 15.2607C133.159 15.5827 133.341 16.0194 133.341 16.4748V41.0027C133.34 41.4579 133.159 41.8943 132.836 42.2162C132.513 42.5381 132.075 42.7191 131.619 42.7197Z" fill="#3F3D56"/>
<path d="M28.0256 78.7617C27.3011 78.7629 26.5959 78.5292 26.0164 78.0959L25.9804 78.069L18.4126 72.2972C17.7048 71.7562 17.2415 70.9569 17.1247 70.0753C17.0079 69.1937 17.2471 68.3019 17.7898 67.5962C18.3325 66.8905 19.1341 66.4286 20.0184 66.3121C20.9026 66.1957 21.7971 66.4342 22.505 66.9752L27.4068 70.7229L38.99 55.6565C39.2586 55.3072 39.5936 55.0141 39.9758 54.7939C40.358 54.5736 40.78 54.4306 41.2177 54.373C41.6553 54.3153 42.1001 54.3442 42.5265 54.458C42.953 54.5717 43.3528 54.7681 43.7032 55.0358L43.7042 55.0366L43.6323 55.1361L43.7061 55.0366C44.4129 55.5782 44.8754 56.3772 44.9919 57.2584C45.1085 58.1395 44.8697 59.0308 44.3279 59.7366L30.7035 77.4501C30.3883 77.8582 29.983 78.1885 29.5191 78.4152C29.0552 78.642 28.5452 78.7592 28.0285 78.7577L28.0256 78.7617Z" fill="#37D4FF"/>
<path d="M80.673 109.667C79.9486 109.668 79.2434 109.434 78.6638 109.001L78.6279 108.974L71.0601 103.202C70.3522 102.661 69.8889 101.862 69.7721 100.98C69.6553 100.099 69.8946 99.2071 70.4373 98.5014C70.9799 97.7956 71.7816 97.3337 72.6658 97.2173C73.5501 97.1008 74.4446 97.3393 75.1524 97.8804L80.0542 101.628L91.6375 86.5617C91.9061 86.2124 92.241 85.9192 92.6232 85.699C93.0055 85.4788 93.4275 85.3358 93.8651 85.2781C94.3028 85.2205 94.7475 85.2494 95.174 85.3631C95.6005 85.4768 96.0003 85.6732 96.3506 85.941L96.3516 85.9417L96.2797 86.0412L96.3536 85.9417C97.0604 86.4833 97.5228 87.2824 97.6394 88.1635C97.756 89.0447 97.5172 89.936 96.9754 90.6418L83.351 108.355C83.0358 108.763 82.6305 109.094 82.1666 109.32C81.7027 109.547 81.1926 109.664 80.676 109.663L80.673 109.667Z" fill="#37D4FF"/>
<path d="M130.368 78.7617C129.644 78.7629 128.939 78.5292 128.359 78.0959L128.323 78.069L120.755 72.2972C120.048 71.7562 119.584 70.9569 119.467 70.0753C119.351 69.1937 119.59 68.3019 120.133 67.5962C120.675 66.8905 121.477 66.4286 122.361 66.3121C123.245 66.1957 124.14 66.4342 124.848 66.9752L129.75 70.7229L141.333 55.6565C141.601 55.3072 141.936 55.0141 142.319 54.7939C142.701 54.5736 143.123 54.4306 143.56 54.373C143.998 54.3153 144.443 54.3442 144.869 54.458C145.296 54.5717 145.696 54.7681 146.046 55.0358L146.047 55.0366L145.975 55.1361L146.049 55.0366C146.756 55.5782 147.218 56.3772 147.335 57.2584C147.451 58.1395 147.212 59.0308 146.671 59.7366L133.046 77.4501C132.731 77.8582 132.326 78.1885 131.862 78.4152C131.398 78.642 130.888 78.7592 130.371 78.7577L130.368 78.7617Z" fill="#37D4FF"/>
</g>
<defs>
<clipPath id="clip0_32_1322">
<rect width="262" height="191" fill="white"/>
</clipPath>
</defs>
</svg>
