<svg width="21" height="20" viewBox="0 0 21 20" fill="none" xmlns="http://www.w3.org/2000/svg">
<g opacity="0.5">
<path d="M7.99995 20.0028H1.33333C1.11232 20.0028 0.900355 19.915 0.744076 19.7588C0.587797 19.6025 0.5 19.3905 0.5 19.1695C0.5 18.9485 0.587797 18.7365 0.744076 18.5803C0.900355 18.424 1.11232 18.3362 1.33333 18.3362H7.99995C8.22096 18.3362 8.43292 18.424 8.5892 18.5803C8.74548 18.7365 8.83328 18.9485 8.83328 19.1695C8.83328 19.3905 8.74548 19.6025 8.5892 19.7588C8.43292 19.915 8.22096 20.0028 7.99995 20.0028Z" fill="black"/>
<path d="M6.3333 16.6696H1.33333C1.11232 16.6696 0.900355 16.5818 0.744076 16.4255C0.587797 16.2692 0.5 16.0573 0.5 15.8363C0.5 15.6152 0.587797 15.4033 0.744076 15.247C0.900355 15.0907 1.11232 15.0029 1.33333 15.0029H6.3333C6.55431 15.0029 6.76627 15.0907 6.92255 15.247C7.07883 15.4033 7.16662 15.6152 7.16662 15.8363C7.16662 16.0573 7.07883 16.2692 6.92255 16.4255C6.76627 16.5818 6.55431 16.6696 6.3333 16.6696Z" fill="black"/>
<path d="M4.66664 13.3363H1.33333C1.11232 13.3363 0.900355 13.2485 0.744076 13.0923C0.587797 12.936 0.5 12.724 0.5 12.503C0.5 12.282 0.587797 12.07 0.744076 11.9138C0.900355 11.7575 1.11232 11.6697 1.33333 11.6697H4.66664C4.88765 11.6697 5.09961 11.7575 5.25589 11.9138C5.41217 12.07 5.49997 12.282 5.49997 12.503C5.49997 12.724 5.41217 12.936 5.25589 13.0923C5.09961 13.2485 4.88765 13.3363 4.66664 13.3363Z" fill="black"/>
<path d="M11.3332 19.9653C11.1122 19.9751 10.8963 19.8967 10.7331 19.7474C10.5698 19.5981 10.4726 19.39 10.4628 19.169C10.4529 18.948 10.5313 18.7321 10.6806 18.5689C10.8299 18.4057 11.038 18.3085 11.259 18.2986C12.836 18.1543 14.3393 17.5636 15.5928 16.5958C16.8462 15.6279 17.7979 14.3229 18.3364 12.8337C18.8749 11.3444 18.9779 9.73254 18.6333 8.18686C18.2888 6.64117 17.5109 5.22566 16.3909 4.10613C15.2708 2.98659 13.8549 2.20938 12.3091 1.86553C10.7632 1.52168 9.15143 1.62542 7.66242 2.16461C6.17341 2.70379 4.86886 3.65609 3.90157 4.90998C2.93428 6.16386 2.3443 7.6674 2.20073 9.24451C2.18084 9.46464 2.07431 9.66785 1.90459 9.80944C1.73488 9.95103 1.51586 10.0194 1.29573 9.9995C1.0756 9.97961 0.872394 9.87309 0.730805 9.70337C0.589216 9.53365 0.520846 9.31464 0.540737 9.09451C0.773143 6.53062 1.9854 4.15513 3.92516 2.46252C5.86491 0.769924 8.38272 -0.109376 10.9545 0.00766318C13.5262 0.124702 15.9537 1.22906 17.7317 3.09086C19.5097 4.95265 20.5012 7.42843 20.4998 10.0028C20.5125 12.5014 19.5843 14.9133 17.8997 16.7586C16.2151 18.604 13.8976 19.7476 11.4082 19.9619C11.3832 19.9644 11.3573 19.9653 11.3332 19.9653Z" fill="black"/>
<path d="M10.4998 5.00293C10.2788 5.00293 10.0669 5.09073 9.91058 5.24701C9.7543 5.40329 9.6665 5.61525 9.6665 5.83626V10.0029C9.66655 10.2239 9.75438 10.4358 9.91067 10.5921L12.4107 13.092C12.5678 13.2438 12.7783 13.3278 12.9968 13.3259C13.2153 13.324 13.4243 13.2364 13.5788 13.0819C13.7333 12.9274 13.821 12.7184 13.8229 12.4999C13.8248 12.2814 13.7408 12.0709 13.589 11.9137L11.3332 9.6579V5.83626C11.3332 5.61525 11.2454 5.40329 11.0891 5.24701C10.9328 5.09073 10.7208 5.00293 10.4998 5.00293Z" fill="black"/>
</g>
</svg>
