<svg width="33" height="32" viewBox="0 0 33 32" fill="none" xmlns="http://www.w3.org/2000/svg">
<g id="Group 114" filter="url(#filter0_d_146_430)">
<path id="Vector" d="M13.4999 24.0034H5.49999C5.23478 24.0034 4.98043 23.898 4.79289 23.7105C4.60536 23.523 4.5 23.2686 4.5 23.0034C4.5 22.7382 4.60536 22.4838 4.79289 22.2963C4.98043 22.1088 5.23478 22.0034 5.49999 22.0034H13.4999C13.7652 22.0034 14.0195 22.1088 14.207 22.2963C14.3946 22.4838 14.4999 22.7382 14.4999 23.0034C14.4999 23.2686 14.3946 23.523 14.207 23.7105C14.0195 23.898 13.7652 24.0034 13.4999 24.0034Z" fill="#37D4FF"/>
<path id="Vector_2" d="M11.5 20.0036H5.49999C5.23478 20.0036 4.98043 19.8983 4.79289 19.7108C4.60536 19.5232 4.5 19.2689 4.5 19.0037C4.5 18.7384 4.60536 18.4841 4.79289 18.2966C4.98043 18.109 5.23478 18.0037 5.49999 18.0037H11.5C11.7652 18.0037 12.0195 18.109 12.2071 18.2966C12.3946 18.4841 12.4999 18.7384 12.4999 19.0037C12.4999 19.2689 12.3946 19.5232 12.2071 19.7108C12.0195 19.8983 11.7652 20.0036 11.5 20.0036Z" fill="#37D4FF"/>
<path id="Vector_3" d="M9.49997 16.0036H5.49999C5.23478 16.0036 4.98043 15.8983 4.79289 15.7108C4.60536 15.5232 4.5 15.2689 4.5 15.0037C4.5 14.7384 4.60536 14.4841 4.79289 14.2966C4.98043 14.109 5.23478 14.0037 5.49999 14.0037H9.49997C9.76518 14.0037 10.0195 14.109 10.2071 14.2966C10.3946 14.4841 10.5 14.7384 10.5 15.0037C10.5 15.2689 10.3946 15.5232 10.2071 15.7108C10.0195 15.8983 9.76518 16.0036 9.49997 16.0036Z" fill="#37D4FF"/>
<path id="Vector_4" d="M17.4998 23.9584C17.2346 23.9702 16.9755 23.8761 16.7796 23.697C16.5838 23.5178 16.4671 23.2681 16.4553 23.0029C16.4435 22.7377 16.5375 22.4786 16.7167 22.2827C16.8959 22.0869 17.1456 21.9702 17.4108 21.9584C19.3032 21.7852 21.1072 21.0764 22.6113 19.915C24.1154 18.7535 25.2574 17.1876 25.9036 15.4005C26.5498 13.6133 26.6734 11.6791 26.26 9.82428C25.8465 7.96945 24.9131 6.27085 23.569 4.9274C22.2249 3.58396 20.5259 2.65131 18.6709 2.23869C16.8159 1.82606 14.8817 1.95055 13.0949 2.59758C11.3081 3.2446 9.74261 4.38736 8.58186 5.89202C7.42111 7.39668 6.71313 9.20093 6.54085 11.0935C6.51698 11.3576 6.38915 11.6015 6.18549 11.7714C5.98183 11.9413 5.71901 12.0233 5.45485 11.9995C5.1907 11.9756 4.94685 11.8478 4.77694 11.6441C4.60703 11.4404 4.52499 11.1776 4.54886 10.9135C4.82775 7.83679 6.28245 4.9862 8.61016 2.95508C10.9379 0.923957 13.9592 -0.131202 17.0453 0.00924465C20.1314 0.149691 23.0445 1.47492 25.1781 3.70908C27.3117 5.94323 28.5014 8.91417 28.4997 12.0035C28.515 15.0018 27.4011 17.896 25.3796 20.1104C23.3581 22.3248 20.5771 23.6971 17.5898 23.9544C17.5598 23.9574 17.5288 23.9584 17.4998 23.9584Z" fill="#37D4FF"/>
<path id="Vector_5" d="M16.4997 6.00366C16.2345 6.00366 15.9802 6.10902 15.7926 6.29655C15.6051 6.48409 15.4998 6.73844 15.4998 7.00366V12.0036C15.4998 12.2688 15.6052 12.5231 15.7928 12.7106L18.7927 15.7106C18.9813 15.8928 19.2339 15.9936 19.4961 15.9913C19.7583 15.989 20.0091 15.8838 20.1945 15.6984C20.38 15.513 20.4851 15.2622 20.4874 15C20.4897 14.7378 20.3889 14.4852 20.2067 14.2966L17.4997 11.5896V7.00366C17.4997 6.73844 17.3944 6.48409 17.2069 6.29655C17.0193 6.10902 16.765 6.00366 16.4997 6.00366Z" fill="#37D4FF"/>
</g>
<defs>
<filter id="filter0_d_146_430" x="0.5" y="-0.00317383" width="31.9999" height="32.0066" filterUnits="userSpaceOnUse" color-interpolation-filters="sRGB">
<feFlood flood-opacity="0" result="BackgroundImageFix"/>
<feColorMatrix in="SourceAlpha" type="matrix" values="0 0 0 0 0 0 0 0 0 0 0 0 0 0 0 0 0 0 127 0" result="hardAlpha"/>
<feOffset dy="4"/>
<feGaussianBlur stdDeviation="2"/>
<feComposite in2="hardAlpha" operator="out"/>
<feColorMatrix type="matrix" values="0 0 0 0 0.216667 0 0 0 0 0.831215 0 0 0 0 1 0 0 0 0.35 0"/>
<feBlend mode="normal" in2="BackgroundImageFix" result="effect1_dropShadow_146_430"/>
<feBlend mode="normal" in="SourceGraphic" in2="effect1_dropShadow_146_430" result="shape"/>
</filter>
</defs>
</svg>
